<svg width="719" height="320" viewBox="0 0 719 320" fill="none" xmlns="http://www.w3.org/2000/svg">
<rect x="203.22" y="266.792" width="145" height="53" rx="26.5" fill="#62A652"/>
<path d="M237.495 306.792V280.611H247.978C249.904 280.611 251.511 280.896 252.798 281.467C254.085 282.038 255.052 282.831 255.7 283.845C256.348 284.851 256.671 286.01 256.671 287.322C256.671 288.345 256.467 289.244 256.058 290.02C255.649 290.787 255.086 291.417 254.37 291.912C253.663 292.398 252.853 292.743 251.941 292.947V293.203C252.938 293.246 253.872 293.527 254.741 294.047C255.619 294.567 256.331 295.295 256.876 296.233C257.421 297.162 257.694 298.27 257.694 299.557C257.694 300.946 257.349 302.186 256.659 303.277C255.977 304.359 254.967 305.216 253.629 305.846C252.291 306.477 250.642 306.792 248.681 306.792H237.495ZM243.031 302.267H247.544C249.086 302.267 250.211 301.973 250.919 301.385C251.626 300.788 251.98 299.996 251.98 299.007C251.98 298.283 251.805 297.643 251.456 297.089C251.106 296.535 250.608 296.101 249.96 295.785C249.321 295.47 248.558 295.312 247.671 295.312H243.031V302.267ZM243.031 291.567H247.134C247.893 291.567 248.566 291.435 249.154 291.17C249.751 290.898 250.22 290.514 250.561 290.02C250.91 289.525 251.085 288.933 251.085 288.243C251.085 287.297 250.748 286.534 250.075 285.954C249.41 285.375 248.464 285.085 247.237 285.085H243.031V291.567ZM261.296 306.792V280.611H271.626C273.611 280.611 275.303 280.99 276.701 281.748C278.099 282.498 279.164 283.542 279.897 284.881C280.638 286.21 281.009 287.744 281.009 289.483C281.009 291.221 280.634 292.756 279.884 294.085C279.134 295.415 278.047 296.45 276.624 297.192C275.209 297.933 273.496 298.304 271.485 298.304H264.901V293.868H270.59C271.655 293.868 272.533 293.685 273.224 293.318C273.922 292.943 274.442 292.427 274.783 291.771C275.133 291.106 275.307 290.344 275.307 289.483C275.307 288.614 275.133 287.855 274.783 287.207C274.442 286.551 273.922 286.044 273.224 285.686C272.525 285.319 271.638 285.136 270.565 285.136H266.832V306.792H261.296ZM284.605 280.611H291.431L298.642 298.202H298.948L306.159 280.611H312.985V306.792H307.616V289.751H307.399L300.623 306.665H296.967L290.191 289.687H289.974V306.792H284.605V280.611Z" fill="white"/>
<rect x="388.22" y="266.792" width="145" height="53" rx="26.5" fill="#7B75B2"/>
<path d="M428.495 306.792V280.611H446.137V285.175H434.031V291.413H445.23V295.977H434.031V302.229H446.188V306.792H428.495ZM450.538 306.792V280.611H460.868C462.845 280.611 464.533 280.964 465.93 281.672C467.337 282.371 468.406 283.364 469.139 284.65C469.881 285.929 470.251 287.433 470.251 289.163C470.251 290.902 469.876 292.398 469.126 293.65C468.376 294.895 467.29 295.849 465.866 296.514C464.452 297.179 462.739 297.511 460.727 297.511H453.811V293.062H459.832C460.889 293.062 461.767 292.917 462.466 292.628C463.165 292.338 463.685 291.903 464.025 291.324C464.375 290.744 464.55 290.024 464.55 289.163C464.55 288.294 464.375 287.561 464.025 286.964C463.685 286.368 463.16 285.916 462.453 285.609C461.754 285.294 460.872 285.136 459.807 285.136H456.074V306.792H450.538ZM464.677 294.878L471.185 306.792H465.074L458.707 294.878H464.677ZM474.163 306.792V280.611H484.493C486.479 280.611 488.17 280.99 489.568 281.748C490.966 282.498 492.031 283.542 492.764 284.881C493.506 286.21 493.876 287.744 493.876 289.483C493.876 291.221 493.501 292.756 492.751 294.085C492.001 295.415 490.915 296.45 489.491 297.192C488.077 297.933 486.364 298.304 484.352 298.304H477.768V293.868H483.457C484.523 293.868 485.4 293.685 486.091 293.318C486.79 292.943 487.31 292.427 487.65 291.771C488 291.106 488.175 290.344 488.175 289.483C488.175 288.614 488 287.855 487.65 287.207C487.31 286.551 486.79 286.044 486.091 285.686C485.392 285.319 484.506 285.136 483.432 285.136H479.699V306.792H474.163Z" fill="white"/>
<rect x="573.22" y="266.792" width="145" height="53" rx="26.5" fill="#E72639"/>
<path d="M629.596 289.777H623.997C623.894 289.052 623.686 288.409 623.37 287.846C623.055 287.275 622.65 286.79 622.156 286.389C621.661 285.989 621.09 285.682 620.443 285.469C619.804 285.256 619.109 285.149 618.359 285.149C617.004 285.149 615.823 285.486 614.818 286.159C613.812 286.824 613.032 287.795 612.478 289.074C611.924 290.344 611.647 291.886 611.647 293.702C611.647 295.568 611.924 297.136 612.478 298.406C613.041 299.676 613.825 300.635 614.831 301.283C615.836 301.93 617 302.254 618.321 302.254C619.062 302.254 619.748 302.156 620.379 301.96C621.018 301.764 621.585 301.479 622.079 301.104C622.573 300.72 622.983 300.256 623.306 299.71C623.639 299.165 623.869 298.542 623.997 297.844L629.596 297.869C629.451 299.071 629.089 300.23 628.51 301.346C627.938 302.454 627.167 303.447 626.196 304.325C625.233 305.194 624.082 305.885 622.744 306.396C621.414 306.899 619.91 307.15 618.231 307.15C615.896 307.15 613.808 306.622 611.967 305.565C610.134 304.508 608.686 302.979 607.62 300.976C606.563 298.973 606.035 296.548 606.035 293.702C606.035 290.846 606.572 288.417 607.646 286.415C608.72 284.412 610.177 282.886 612.018 281.838C613.859 280.781 615.93 280.253 618.231 280.253C619.748 280.253 621.154 280.466 622.45 280.892C623.754 281.318 624.909 281.94 625.914 282.758C626.92 283.568 627.738 284.561 628.369 285.737C629.008 286.913 629.417 288.26 629.596 289.777ZM633.566 306.792V280.611H643.895C645.872 280.611 647.56 280.964 648.958 281.672C650.364 282.371 651.434 283.364 652.166 284.65C652.908 285.929 653.279 287.433 653.279 289.163C653.279 290.902 652.904 292.398 652.154 293.65C651.404 294.895 650.317 295.849 648.894 296.514C647.479 297.179 645.766 297.511 643.755 297.511H636.838V293.062H642.86C643.916 293.062 644.794 292.917 645.493 292.628C646.192 292.338 646.712 291.903 647.053 291.324C647.402 290.744 647.577 290.024 647.577 289.163C647.577 288.294 647.402 287.561 647.053 286.964C646.712 286.368 646.188 285.916 645.48 285.609C644.782 285.294 643.899 285.136 642.834 285.136H639.101V306.792H633.566ZM647.705 294.878L654.212 306.792H648.101L641.735 294.878H647.705ZM657.191 280.611H664.017L671.228 298.202H671.534L678.745 280.611H685.571V306.792H680.202V289.751H679.985L673.209 306.665H669.553L662.777 289.687H662.56V306.792H657.191V280.611Z" fill="white"/>
<path d="M476.99 194.494L472.312 195.817C472.018 195.038 471.584 194.28 471.011 193.545C470.452 192.795 469.687 192.177 468.716 191.692C467.745 191.206 466.502 190.964 464.987 190.964C462.914 190.964 461.185 191.442 459.803 192.398C458.435 193.339 457.751 194.538 457.751 195.994C457.751 197.288 458.221 198.311 459.163 199.061C460.104 199.811 461.575 200.436 463.575 200.936L468.606 202.172C471.636 202.907 473.893 204.032 475.379 205.547C476.864 207.047 477.607 208.982 477.607 211.35C477.607 213.291 477.048 215.027 475.931 216.556C474.827 218.086 473.283 219.292 471.297 220.175C469.312 221.057 467.002 221.498 464.37 221.498C460.913 221.498 458.052 220.748 455.787 219.248C453.522 217.748 452.088 215.556 451.485 212.673L456.427 211.438C456.898 213.262 457.788 214.63 459.097 215.542C460.42 216.453 462.149 216.909 464.281 216.909C466.708 216.909 468.635 216.395 470.062 215.365C471.503 214.321 472.224 213.071 472.224 211.614C472.224 210.438 471.812 209.452 470.988 208.658C470.165 207.849 468.9 207.246 467.194 206.849L461.546 205.525C458.442 204.79 456.162 203.65 454.706 202.105C453.265 200.546 452.544 198.597 452.544 196.259C452.544 194.347 453.081 192.655 454.155 191.184C455.243 189.713 456.721 188.559 458.589 187.72C460.472 186.882 462.605 186.463 464.987 186.463C468.341 186.463 470.974 187.198 472.886 188.669C474.813 190.14 476.181 192.082 476.99 194.494ZM485.445 220.792V186.904H490.652V220.792H485.445ZM488.093 181.256C487.078 181.256 486.203 180.91 485.467 180.219C484.746 179.528 484.386 178.697 484.386 177.726C484.386 176.755 484.746 175.924 485.467 175.233C486.203 174.542 487.078 174.196 488.093 174.196C489.107 174.196 489.975 174.542 490.696 175.233C491.431 175.924 491.799 176.755 491.799 177.726C491.799 178.697 491.431 179.528 490.696 180.219C489.975 180.91 489.107 181.256 488.093 181.256ZM524.193 194.494L519.515 195.817C519.221 195.038 518.787 194.28 518.214 193.545C517.655 192.795 516.89 192.177 515.919 191.692C514.948 191.206 513.706 190.964 512.191 190.964C510.117 190.964 508.388 191.442 507.006 192.398C505.638 193.339 504.954 194.538 504.954 195.994C504.954 197.288 505.425 198.311 506.366 199.061C507.307 199.811 508.778 200.436 510.779 200.936L515.809 202.172C518.839 202.907 521.097 204.032 522.582 205.547C524.068 207.047 524.81 208.982 524.81 211.35C524.81 213.291 524.252 215.027 523.134 216.556C522.031 218.086 520.486 219.292 518.501 220.175C516.515 221.057 514.206 221.498 511.573 221.498C508.116 221.498 505.256 220.748 502.99 219.248C500.725 217.748 499.291 215.556 498.688 212.673L503.63 211.438C504.101 213.262 504.991 214.63 506.3 215.542C507.624 216.453 509.352 216.909 511.485 216.909C513.911 216.909 515.838 216.395 517.265 215.365C518.706 214.321 519.427 213.071 519.427 211.614C519.427 210.438 519.015 209.452 518.192 208.658C517.368 207.849 516.103 207.246 514.397 206.849L508.749 205.525C505.645 204.79 503.366 203.65 501.909 202.105C500.468 200.546 499.747 198.597 499.747 196.259C499.747 194.347 500.284 192.655 501.358 191.184C502.446 189.713 503.924 188.559 505.792 187.72C507.675 186.882 509.808 186.463 512.191 186.463C515.544 186.463 518.177 187.198 520.089 188.669C522.016 190.14 523.384 192.082 524.193 194.494ZM547.386 186.904V191.317H529.824V186.904H547.386ZM534.943 178.785H540.15V211.085C540.15 212.556 540.363 213.659 540.789 214.394C541.231 215.115 541.79 215.6 542.466 215.85C543.157 216.086 543.886 216.203 544.65 216.203C545.224 216.203 545.695 216.174 546.062 216.115C546.43 216.042 546.724 215.983 546.945 215.939L548.004 220.616C547.651 220.748 547.158 220.881 546.526 221.013C545.893 221.16 545.092 221.234 544.121 221.234C542.65 221.234 541.209 220.918 539.797 220.285C538.399 219.653 537.237 218.689 536.311 217.395C535.399 216.1 534.943 214.468 534.943 212.497V178.785ZM569.063 221.498C565.797 221.498 562.981 220.778 560.613 219.336C558.259 217.88 556.443 215.85 555.163 213.247C553.898 210.629 553.266 207.584 553.266 204.113C553.266 200.642 553.898 197.582 555.163 194.935C556.443 192.273 558.223 190.199 560.502 188.713C562.797 187.213 565.474 186.463 568.533 186.463C570.298 186.463 572.041 186.757 573.762 187.345C575.483 187.934 577.049 188.89 578.462 190.214C579.874 191.523 580.999 193.258 581.837 195.42C582.675 197.582 583.095 200.245 583.095 203.407V205.613H556.972V201.113H577.8C577.8 199.2 577.417 197.494 576.652 195.994C575.902 194.494 574.829 193.31 573.431 192.442C572.049 191.574 570.416 191.14 568.533 191.14C566.459 191.14 564.665 191.655 563.15 192.685C561.65 193.699 560.495 195.023 559.686 196.656C558.877 198.289 558.473 200.039 558.473 201.907V204.907C558.473 207.467 558.914 209.636 559.796 211.416C560.694 213.181 561.937 214.527 563.525 215.453C565.114 216.365 566.959 216.821 569.063 216.821C570.431 216.821 571.666 216.63 572.769 216.248C573.887 215.85 574.851 215.262 575.66 214.483C576.469 213.688 577.094 212.703 577.535 211.526L582.565 212.938C582.036 214.644 581.146 216.145 579.896 217.439C578.645 218.719 577.101 219.719 575.262 220.439C573.424 221.145 571.357 221.498 569.063 221.498ZM591.015 220.792V186.904H596.045V192.199H596.487C597.193 190.39 598.333 188.985 599.906 187.985C601.48 186.97 603.37 186.463 605.577 186.463C607.812 186.463 609.673 186.97 611.158 187.985C612.659 188.985 613.828 190.39 614.666 192.199H615.019C615.887 190.449 617.189 189.059 618.925 188.029C620.66 186.985 622.741 186.463 625.168 186.463C628.198 186.463 630.677 187.412 632.603 189.309C634.53 191.192 635.494 194.126 635.494 198.112V220.792H630.287V198.112C630.287 195.612 629.603 193.824 628.235 192.751C626.867 191.677 625.257 191.14 623.403 191.14C621.021 191.14 619.175 191.861 617.866 193.302C616.556 194.729 615.902 196.538 615.902 198.73V220.792H610.607V197.582C610.607 195.656 609.982 194.104 608.732 192.927C607.481 191.736 605.871 191.14 603.9 191.14C602.547 191.14 601.282 191.501 600.105 192.221C598.943 192.942 598.002 193.942 597.281 195.222C596.575 196.487 596.222 197.95 596.222 199.612V220.792H591.015ZM654.986 221.587C652.839 221.587 650.89 221.182 649.139 220.373C647.389 219.55 645.999 218.366 644.97 216.821C643.94 215.262 643.425 213.379 643.425 211.173C643.425 209.232 643.808 207.658 644.572 206.452C645.337 205.231 646.36 204.275 647.639 203.584C648.919 202.892 650.331 202.377 651.875 202.039C653.434 201.686 655.001 201.407 656.575 201.201C658.634 200.936 660.303 200.737 661.583 200.605C662.877 200.458 663.818 200.215 664.407 199.877C665.01 199.539 665.311 198.95 665.311 198.112V197.935C665.311 195.759 664.716 194.067 663.524 192.861C662.348 191.655 660.561 191.052 658.163 191.052C655.677 191.052 653.728 191.596 652.316 192.685C650.904 193.773 649.912 194.935 649.338 196.17L644.396 194.405C645.278 192.346 646.455 190.743 647.926 189.596C649.412 188.434 651.029 187.625 652.78 187.169C654.545 186.698 656.28 186.463 657.987 186.463C659.075 186.463 660.325 186.595 661.737 186.86C663.164 187.11 664.539 187.632 665.863 188.426C667.201 189.221 668.312 190.419 669.194 192.023C670.077 193.626 670.518 195.773 670.518 198.465V220.792H665.311V216.203H665.047C664.694 216.939 664.105 217.726 663.282 218.564C662.458 219.403 661.362 220.116 659.994 220.704C658.626 221.293 656.957 221.587 654.986 221.587ZM655.78 216.909C657.839 216.909 659.575 216.505 660.987 215.696C662.414 214.887 663.488 213.843 664.208 212.563C664.944 211.283 665.311 209.938 665.311 208.526V203.76C665.091 204.025 664.605 204.267 663.855 204.488C663.12 204.694 662.267 204.878 661.296 205.04C660.34 205.187 659.406 205.319 658.494 205.437C657.597 205.54 656.869 205.628 656.31 205.702C654.957 205.878 653.692 206.165 652.515 206.562C651.353 206.944 650.412 207.525 649.691 208.305C648.985 209.07 648.632 210.114 648.632 211.438C648.632 213.247 649.301 214.615 650.64 215.542C651.993 216.453 653.706 216.909 655.78 216.909ZM704.026 194.494L699.349 195.817C699.055 195.038 698.621 194.28 698.047 193.545C697.488 192.795 696.723 192.177 695.752 191.692C694.782 191.206 693.539 190.964 692.024 190.964C689.95 190.964 688.222 191.442 686.839 192.398C685.471 193.339 684.787 194.538 684.787 195.994C684.787 197.288 685.258 198.311 686.199 199.061C687.141 199.811 688.611 200.436 690.612 200.936L695.642 202.172C698.672 202.907 700.93 204.032 702.415 205.547C703.901 207.047 704.644 208.982 704.644 211.35C704.644 213.291 704.085 215.027 702.967 216.556C701.864 218.086 700.319 219.292 698.334 220.175C696.348 221.057 694.039 221.498 691.406 221.498C687.95 221.498 685.089 220.748 682.824 219.248C680.559 217.748 679.125 215.556 678.521 212.673L683.464 211.438C683.934 213.262 684.824 214.63 686.133 215.542C687.457 216.453 689.185 216.909 691.318 216.909C693.745 216.909 695.672 216.395 697.098 215.365C698.54 214.321 699.26 213.071 699.26 211.614C699.26 210.438 698.849 209.452 698.025 208.658C697.201 207.849 695.936 207.246 694.23 206.849L688.582 205.525C685.479 204.79 683.199 203.65 681.743 202.105C680.301 200.546 679.58 198.597 679.58 196.259C679.58 194.347 680.117 192.655 681.191 191.184C682.279 189.713 683.758 188.559 685.626 187.72C687.508 186.882 689.641 186.463 692.024 186.463C695.377 186.463 698.01 187.198 699.922 188.669C701.849 190.14 703.217 192.082 704.026 194.494Z" fill="#949495"/>
<path d="M21.661 46.2039C23.4027 33.5957 33.2863 21.7368 43.1837 14.2371C58.0227 3.04768 76.6668 -1.84214 95.0804 0.626031C131.205 5.66228 138.166 43.0293 112.748 65.6754C111.212 67.0436 107.516 70.2557 106.595 71.6632C116.277 73.2073 128.725 82.3292 134.127 90.4864C151.778 117.091 134.274 148.111 111.247 164.647C81.979 185.666 32.1065 192.58 7.18588 161.522C-1.65679 150.502 -1.10767 132.141 2.29882 119.1C5.65503 106.707 8.82561 94.2641 11.8096 81.7761C13.3049 75.5472 19.2403 51.0134 21.661 46.2039Z" fill="#007DC6"/>
<path d="M21.6611 46.2039C23.4029 33.5957 33.2865 21.7367 43.1839 14.2371C58.0228 3.04768 76.6669 -1.84214 95.0806 0.626031C131.205 5.66228 138.167 43.0293 112.748 65.6753C111.212 67.0436 107.516 70.2557 106.595 71.6632L106.256 71.9077C100.209 67.471 66.3742 68.2294 56.797 65.7166C46.2141 62.9399 34.1175 61.7088 25.4767 53.6406C22.555 50.9126 23.2679 49.6964 21.6611 46.2039Z" fill="#72CDE0"/>
<path d="M2.29883 119.1C5.65504 106.707 8.82562 94.2639 11.8096 81.7758C13.3049 75.547 19.2403 51.0132 21.661 46.2036C23.2678 49.6962 22.5548 50.9123 25.4765 53.6403C34.1173 61.7086 46.2139 62.9396 56.7968 65.7164C66.3741 68.2292 100.208 67.4708 106.256 71.9074C93.6838 80.3037 82.3365 84.1549 67.7042 87.1538C63.0127 88.4579 57.7829 88.1235 53.4592 90.4057C52.3982 90.9653 49.1599 91.8251 47.9405 92.1248C35.4085 95.2012 23.4035 100.572 13.0983 108.394C9.7257 110.954 6.97998 116.515 3.43408 118.665C3.27629 118.755 2.51113 119.03 2.29883 119.1Z" fill="#00AED3"/>
<path d="M199.241 39.6505L200.109 39.5944C208.964 39.0566 212.374 43.1758 212.251 51.9984C212.122 61.171 211.911 70.1602 212.454 79.3298C220.809 73.6307 226.455 72.0478 236.592 71.3793C276.548 68.7452 297.989 118.833 271.033 147.685C259.383 159.878 243.899 164.492 227.409 160.592C216.119 157.925 206.352 150.874 200.259 140.994C196.187 134.386 193.394 125.037 193.465 117.095C193.677 93.7069 192.498 69.7964 193.981 46.5121C194.144 43.964 197.112 40.9485 199.241 39.6505ZM239.755 142.528C254.175 141.711 265.16 129.277 264.206 114.852C263.252 100.427 250.726 89.5505 236.324 90.6434C222.117 91.7219 211.429 104.055 212.37 118.286C213.311 132.517 225.53 143.333 239.755 142.528Z" fill="#004072"/>
<path d="M386.471 71.6426C389.56 71.0328 392.411 71.3434 395.484 71.5586C418.349 73.1609 435.77 93.8106 435.751 116.362C435.746 122.081 435.654 128.007 435.641 133.769C435.574 140.108 436.174 146.531 435.75 152.852C435.309 159.431 430.953 162.523 424.576 161.733C420.736 161.258 418.167 157.529 415.969 154.701C410.24 157.63 407.269 159.147 401.216 160.939C400.917 160.983 400.617 161.025 400.316 161.065C370.62 165.013 346.756 147.503 345.774 116.005C345.256 99.3879 356.583 83.1182 370.842 75.7239C376.224 72.9328 380.447 72.4318 386.471 71.6426ZM393.163 142.422C407.402 141.116 417.902 128.527 416.646 114.27C415.389 100.013 402.849 89.4589 388.602 90.6681C374.285 91.8828 363.679 104.509 364.942 118.835C366.204 133.162 378.855 143.735 393.163 142.422Z" fill="#004072"/>
<path d="M565.06 71.5355C569.365 70.6583 580.059 72.526 584.141 74.1284C617.988 87.3853 612.819 121.638 612.998 150.941C613.068 162.566 599.349 166.959 593.833 154.099C588.058 157.095 584.161 159.46 577.756 160.885C535.036 170.33 506.084 119.864 533.7 87.02C542.687 76.3375 551.599 72.8387 565.06 71.5355ZM570.417 142.404C584.543 141.005 594.93 128.508 593.729 114.35C592.527 100.193 580.189 89.6267 566.028 90.6302C556.694 91.2922 548.437 96.9341 544.42 105.396C540.403 113.859 541.247 123.831 546.629 131.494C552.016 139.157 561.103 143.326 570.417 142.404Z" fill="#004072"/>
<path d="M662.395 71.5101C687.147 69.6478 708.755 88.1336 710.776 112.896C712.801 137.659 694.47 159.411 669.749 161.596C644.794 163.801 622.818 145.25 620.778 120.258C618.737 95.266 637.411 73.3892 662.395 71.5101ZM667.246 142.457C681.551 141.585 692.434 129.254 691.531 114.935C690.627 100.617 678.284 89.7523 663.984 90.6867C649.724 91.6181 638.91 103.927 639.809 118.201C640.713 132.475 652.986 143.327 667.246 142.457Z" fill="#004072"/>
<path d="M478.944 70.4701C484.741 70.2803 490.515 71.2996 495.899 73.4636C503.044 76.3044 515.129 85.0774 511.187 93.5313C504.241 106.824 494.851 94.4214 487.103 90.6656C481.401 87.9018 468.988 91.3276 466.587 97.1892C467.106 103.515 488.273 107.36 494.587 109.342C515.948 116.049 522.984 137.035 507.041 153.817C500.05 161.176 487.58 162.326 477.229 161.805C464.504 161.044 439.653 148.505 449.896 133.837C457.861 122.431 471.555 147.991 485.441 143.061C516.842 131.912 476.62 124.761 468.76 122.094C465.33 120.932 462.07 119.316 459.067 117.29C440.672 104.839 446.307 81.8399 465.396 73.892C469.731 72.0869 474.35 71.3488 478.944 70.4701Z" fill="#004072"/>
<path d="M332.42 71.5899C340.197 70.2862 346.998 73.3517 346.148 82.7002C345.567 89.0906 336.882 90.2158 331.704 90.8818C320.602 92.3107 312.653 100.138 312.072 111.501C311.597 125.426 312.771 139.786 311.926 153.702C311.708 157.286 309.759 159.202 307.043 161.161C306.427 161.302 305.804 161.41 305.177 161.483C298.148 162.332 293.836 159.907 293.309 152.276C292.914 146.546 293.123 140.263 293.243 134.493C293.587 118.014 290.636 99.7721 302.199 86.1479C311.216 75.4759 319.493 72.9859 332.42 71.5899Z" fill="#004072"/>
<path d="M561.35 39.7149C570.998 38.3091 587.378 40.3269 595.267 46.258C601.042 63.6281 586.578 61.654 575.61 59.4662C569.751 58.1357 560.194 59.3708 553.615 60.65C543.238 62.6684 535.115 56.7924 541.505 46.1208C544.226 41.5791 555.809 40.3824 561.35 39.7149Z" fill="#004072"/>
</svg>
