<svg width="961" height="774" viewBox="0 0 961 774" fill="none" xmlns="http://www.w3.org/2000/svg">
<path d="M530.201 65.9154C549.088 63.8652 586.688 67.7798 605.369 73.4428C619.3 77.6142 632.594 83.6879 644.865 91.4922C693.14 121.945 722.383 176.238 725.156 232.764C726.409 258.327 723.19 282.979 709.127 304.885C701.553 316.745 689.574 325.102 675.83 328.11C666.811 330.011 648.257 329.053 641.078 324.025C638.783 322.419 622.548 293.496 621.994 290.927C622.923 288.238 633.589 282.864 637.263 279.853C643.921 274.389 649.782 268.015 654.667 260.919C665.276 245.192 668.387 227.533 664.812 208.967C664.211 206.152 662.461 200.656 661.49 197.911C654.535 178.454 640.139 162.557 621.464 153.716C602.779 144.923 580.147 146.355 561.617 154.939C558.318 156.466 555.226 157.921 551.8 159.164C548.525 150.106 544.471 142.523 541.51 132.778C535.982 134.64 530.122 135.697 524.561 137.442C498.673 145.563 471.983 159.127 459.662 184.738C456.725 190.841 453.914 197.402 452.888 203.98C443.262 201.822 434.006 198.482 424.654 195.623L385.646 183.826C387.049 179.359 389.267 175.309 391.17 171.055C417.448 112.333 463.597 70.1548 530.201 65.9154Z" fill="#1B6097"/>
<path d="M164.037 76.2373C171.23 75.8191 182.789 76.741 189.361 79.8853C193.636 81.9304 208.348 109.678 210.447 115.482C210.178 115.591 209.911 115.707 209.648 115.828C205.774 117.597 200.749 121.054 197.277 123.546C166.795 145.414 157.737 181.018 173.768 215.136C182.476 233.35 198.097 247.331 217.159 253.97C240.572 262.266 259.238 255.688 280.083 245.756C280.644 247.478 281.476 249.321 282.228 250.975C285.409 257.973 288.061 264.974 290.601 272.23C305.503 269.022 326.021 262.038 339.216 254.542C361.336 241.977 373.905 225.569 380.429 201.031C396.3 205.516 412.999 211.358 428.932 215.859C434.083 217.315 441.005 220.18 446.011 220.903C442.654 233.071 436.076 242.769 430.829 253.682C426.232 262.807 415.467 277.418 408.943 285.2C381.869 317.494 345.113 336.502 302.634 338.832C253.069 341.552 206.04 332.59 167.481 299.241C131.732 268.272 110.453 222.625 107.075 175.726C104.246 136.438 115.407 79.0963 164.037 76.2373Z" fill="#1B6097"/>
<path d="M350.022 335.576C379.749 336.954 412.256 330.067 435.628 353.611C458.945 377.1 459.324 426.136 435.617 449.647C432.534 452.396 429.816 454.905 426.394 457.27C408.8 469.488 386.747 467.189 366.486 467.508C361.214 467.591 355.213 467.221 350.034 467.841C349.3 424.677 349.89 378.878 350.022 335.576ZM367.454 452.426C388.909 452.258 405.131 454.086 422.082 438.825C426.529 433.348 429.932 428.358 431.844 421.569C437.383 401.894 435.47 375.203 418.25 361.668C403.368 349.971 385.031 350.791 367.396 351.053C367.403 384.517 366.975 419.051 367.454 452.426Z" fill="#1B6097"/>
<path d="M590.86 168.69C592.695 168.494 594.117 168.589 595.938 168.679C626.654 170.185 648.384 194.681 646.076 225.688C645.086 239.366 638.563 252.049 628.015 260.809C615.111 271.733 602.713 273.797 586.426 272.506C578.796 271.259 574.005 269.866 567.169 265.895C555.714 259.291 547.329 248.429 543.843 235.673C542.435 235.157 541.037 234.623 539.643 234.073C523.586 227.697 528.151 220.38 542.036 215.596C544.894 188.226 564.203 171.634 590.86 168.69Z" fill="#1B6097"/>
<path d="M231.972 131.979C259.596 130.165 280.085 144.402 288.704 170.488C293.712 171.437 303.569 174.648 300.779 181.725C299.208 185.713 294.082 187.544 290.383 189.142C286.67 211.389 275.959 226.795 254.003 234.291C252.797 234.597 251.589 234.889 250.376 235.167C221.915 241.623 193.224 224.781 186.991 195.839C183.867 181.71 186.58 166.917 194.513 154.817C203.557 140.925 216.389 135.249 231.972 131.979Z" fill="#1B6097"/>
<path d="M573.606 335.591C604.051 337.018 655.343 327.137 656.629 375.175C657.394 403.71 633.838 418.459 607.119 418.663C601.845 418.629 596.566 418.677 591.297 418.805C591.527 435.068 591.278 451.278 591.653 467.539C585.38 467.614 579.106 467.588 572.837 467.46C573.743 457.28 573.381 443.911 573.381 433.481L573.362 370.351C573.358 360.08 572.959 345.606 573.606 335.591ZM591.283 403.136C603.445 403 620.938 404.654 629.638 395.705L629.924 395.407C636.527 388.105 638.286 384.01 637.751 374.076C636.391 348.868 609.513 350.485 591.259 351.092C591.724 367.285 591.663 386.902 591.283 403.136Z" fill="#1B6097"/>
<path d="M472.391 335.676C475.911 335.762 479.463 335.812 482.987 335.774C506.74 335.521 530.689 336.222 554.423 335.589C554.4 340.888 554.442 346.188 554.55 351.486C533.106 351.239 511.31 351.443 489.828 351.415L489.87 387.294L549.956 387.213C549.966 392.492 550.05 397.77 550.214 403.047L511.249 403.039C505.543 403.033 495.689 402.738 490.26 403.283C489.556 404.305 489.805 406.147 489.828 407.485L489.866 452.074C511.061 451.581 533.054 452.292 554.442 451.926C554.395 457.134 554.423 462.343 554.536 467.551L471.974 467.535C472.631 437.63 472.143 406.025 472.124 376.003L472.086 351.088C472.082 346.438 471.889 340.11 472.391 335.676Z" fill="#1B6097"/>
<path d="M425.629 498.153C439.003 497.359 448.741 503.034 450.867 517.148C453.076 531.811 450.041 548.568 432.745 550.92C419.977 551.577 411.767 548.263 408.101 534.562C405.906 526.362 406.623 514.726 411.021 507.254C414.549 501.255 419.03 499.687 425.629 498.153ZM429.938 543.954C448.257 540.359 446.979 505.644 428.505 505.099C415.198 507.761 414.527 521.654 416.586 532.741C417.807 539.321 423.038 543.912 429.938 543.954Z" fill="#989899"/>
<path d="M273.906 595.272C308.811 594.666 345.37 595.211 380.376 595.211L588.294 595.215C599.748 595.215 683.591 594.445 686.538 595.530C687.322 597.032 686.932 597.525 686.721 599.444L367.354 599.383L302.624 599.393C298.483 599.397 276.144 599.702 274.173 599.111C273.505 597.797 273.778 596.769 273.906 595.272Z" fill="#1B6097"/>
<path d="M374.056 481.297C384.030 480.640 390.378 482.025 398.897 487.305C399.183 491.379 398.936 494.731 398.413 498.748C378.829 479.363 357.850 490.089 357.768 516.036C357.750 521.480 358.081 525.203 360.035 530.281C364.319 541.419 376.303 546.160 387.089 541.696C391.631 539.293 394.543 537.303 398.524 534.182C398.962 538.303 399.070 540.819 399.100 544.921C377.656 558.753 350.187 550.056 348.758 521.865C347.832 503.616 352.041 483.189 374.056 481.297Z" fill="#989899"/>
<path d="M484.794 498.139C505.229 496.862 503.352 513.356 503.277 527.883C503.188 535.290 503.230 542.697 503.409 550.104L494.929 550.127C494.929 539.224 495.023 528.315 494.821 517.412C494.643 507.897 490.246 504.119 480.852 507.198C478.727 508.052 475.911 509.005 474.288 510.643C471.768 513.183 472.978 544.091 473.110 550.146L464.282 550.122C464.194 533.234 464.191 516.346 464.274 499.458C467.087 499.373 469.309 499.261 472.120 499.542C473.143 500.683 472.875 501.523 473.030 503.340L473.424 503.598C477.197 501.260 479.839 499.308 484.221 498.275L484.794 498.139Z" fill="#989899"/>
<path d="M594.99 499.35L603.009 499.416L603.037 512.793L603.103 550.085C600.348 550.024 597.233 550.812 595.206 549.456C594.211 547.954 594.492 546.607 594.535 544.729C588.580 549.423 586.501 551.080 578.749 551.141C566.071 551.244 563.982 540.158 564.020 529.920C564.058 519.857 563.954 509.625 564.231 499.496L572.509 499.312C572.523 511.188 571.950 523.138 573.020 535.051C573.771 543.448 579.885 544.457 586.924 542.049C588.819 541.401 594.079 537.731 594.267 535.684C595.370 523.636 594.178 511.507 594.990 499.350Z" fill="#989899"/>
<path d="M531.009 498.590C535.223 497.745 546.095 498.688 549.863 501.481C551.627 502.791 550.970 508.592 550.848 510.873C546.282 508.508 539.413 504.513 534.153 505.062C532.018 505.264 527.297 507.296 526.307 509.090C519.954 520.589 542.369 519.557 547.568 524.508C550.093 526.400 552.303 529.498 552.444 532.807C552.960 544.992 546.376 549.949 535.513 550.883C528.986 551.376 522.450 550.160 516.537 547.353C516.171 544.457 516.247 540.035 516.209 537.013L516.636 537.318C521.699 540.833 529.517 544.978 535.720 543.729C545.471 542.237 547.019 530.967 536.269 529.287C521.418 526.968 510.334 520.326 519.705 503.950C521.507 500.800 527.283 499.289 531.009 498.590Z" fill="#989899"/>
<path d="M645.156 484.968C646.906 485.067 654.146 484.100 654.001 487.555C653.822 491.817 653.682 495.051 654.043 499.355L669.026 499.458L669.021 506.494C664.075 506.747 658.613 506.766 653.625 506.879C653.865 517.017 652.687 527.977 654.118 537.853C655.094 544.621 663.475 543.607 668.078 542.059C668.547 542.190 668.561 542.289 668.984 542.612C669.321 544.851 668.890 547.644 668.650 549.939C662.306 550.925 654.559 552.206 649.355 547.409C644.766 543.030 645.057 536.027 645.123 530.226C645.207 522.345 645.203 514.497 645.184 506.635C643.349 506.747 641.247 506.733 639.389 506.771L639.619 499.453L645.245 499.327L645.156 484.968Z" fill="#989899"/>
<path d="M619.474 479.382C622.365 479.157 625.743 479.246 628.676 479.251C628.024 502.335 628.390 526.752 628.432 549.915C626.081 550.211 622.187 550.164 619.695 550.202C619.146 541.157 619.413 529.718 619.413 520.462C619.418 506.906 619.221 492.905 619.474 479.382Z" fill="#989899"/>
<path d="M232.359 663.936C231.874 662.45 231.234 661.119 230.44 659.942C229.66 658.751 228.726 657.736 227.638 656.898C226.564 656.059 225.343 655.419 223.976 654.978C222.608 654.537 221.107 654.316 219.475 654.316C216.798 654.316 214.364 655.008 212.172 656.39C209.98 657.773 208.237 659.81 206.943 662.502C205.649 665.193 205.002 668.495 205.002 672.408C205.002 676.32 205.656 679.622 206.965 682.314C208.274 685.006 210.047 687.043 212.282 688.425C214.518 689.808 217.033 690.499 219.828 690.499C222.416 690.499 224.696 689.948 226.667 688.844C228.653 687.727 230.197 686.153 231.3 684.123C232.418 682.079 232.977 679.674 232.977 676.909L234.654 677.262H221.063V672.408H238.272V677.262C238.272 680.983 237.478 684.219 235.889 686.969C234.316 689.72 232.139 691.852 229.359 693.367C226.594 694.868 223.417 695.618 219.828 695.618C215.827 695.618 212.312 694.676 209.282 692.794C206.267 690.911 203.913 688.234 202.222 684.763C200.545 681.292 199.707 677.173 199.707 672.408C199.707 668.834 200.185 665.62 201.141 662.766C202.111 659.898 203.479 657.457 205.244 655.442C207.009 653.426 209.098 651.882 211.51 650.808C213.922 649.735 216.577 649.198 219.475 649.198C221.858 649.198 224.078 649.558 226.138 650.279C228.212 650.985 230.057 651.992 231.675 653.301C233.308 654.596 234.669 656.148 235.757 657.957C236.845 659.751 237.596 661.744 238.007 663.936H232.359ZM261.146 695.706C257.880 695.706 255.064 694.985 252.696 693.544C250.342 692.088 248.526 690.058 247.246 687.455C245.981 684.836 245.349 681.792 245.349 678.321C245.349 674.849 245.981 671.790 247.246 669.142C248.526 666.480 250.306 664.406 252.585 662.921C254.880 661.421 257.557 660.670 260.616 660.670C262.381 660.670 264.124 660.965 265.845 661.553C267.566 662.141 269.132 663.097 270.544 664.421C271.956 665.730 273.082 667.466 273.920 669.628C274.758 671.790 275.178 674.452 275.178 677.615V679.821H249.055V675.320H269.883C269.883 673.408 269.500 671.702 268.735 670.201C267.985 668.701 266.911 667.517 265.514 666.649C264.132 665.782 262.499 665.348 260.616 665.348C258.542 665.348 256.748 665.862 255.233 666.892C253.733 667.907 252.578 669.231 251.769 670.863C250.960 672.496 250.556 674.246 250.556 676.114V679.115C250.556 681.674 250.997 683.844 251.879 685.623C252.777 687.388 254.019 688.734 255.608 689.661C257.196 690.573 259.042 691.029 261.146 691.029C262.514 691.029 263.749 690.837 264.852 690.455C265.970 690.058 266.933 689.470 267.742 688.690C268.551 687.896 269.177 686.910 269.618 685.734L274.648 687.146C274.119 688.852 273.229 690.352 271.979 691.646C270.728 692.926 269.184 693.926 267.345 694.647C265.507 695.353 263.440 695.706 261.146 695.706ZM307.102 668.701L302.425 670.025C302.131 669.245 301.697 668.488 301.123 667.753C300.564 667.002 299.800 666.385 298.829 665.899C297.858 665.414 296.615 665.171 295.100 665.171C293.026 665.171 291.298 665.649 289.915 666.605C288.548 667.547 287.864 668.745 287.864 670.201C287.864 671.496 288.334 672.518 289.276 673.268C290.217 674.018 291.688 674.643 293.688 675.144L298.719 676.379C301.748 677.114 304.006 678.240 305.492 679.755C306.977 681.255 307.720 683.189 307.720 685.557C307.720 687.499 307.161 689.234 306.043 690.764C304.940 692.294 303.396 693.500 301.410 694.382C299.425 695.265 297.115 695.706 294.482 695.706C291.026 695.706 288.165 694.956 285.900 693.456C283.635 691.955 282.201 689.764 281.598 686.881L286.540 685.645C287.011 687.469 287.900 688.837 289.209 689.749C290.533 690.661 292.261 691.117 294.394 691.117C296.821 691.117 298.748 690.602 300.175 689.573C301.616 688.528 302.337 687.278 302.337 685.822C302.337 684.645 301.925 683.660 301.101 682.866C300.278 682.057 299.013 681.453 297.307 681.056L291.658 679.733C288.555 678.997 286.275 677.857 284.819 676.313C283.378 674.754 282.657 672.805 282.657 670.466C282.657 668.554 283.194 666.863 284.267 665.392C285.356 663.921 286.834 662.766 288.702 661.928C290.585 661.090 292.717 660.670 295.100 660.670C298.454 660.670 301.087 661.406 302.999 662.877C304.926 664.348 306.293 666.289 307.102 668.701ZM330.296 661.112V665.524H312.734V661.112H330.296ZM317.852 652.993H323.059V685.292C323.059 686.763 323.272 687.866 323.699 688.602C324.140 689.323 324.699 689.808 325.376 690.058C326.067 690.293 326.795 690.411 327.560 690.411C328.134 690.411 328.604 690.382 328.972 690.323C329.340 690.249 329.634 690.190 329.855 690.146L330.914 694.823C330.561 694.956 330.068 695.088 329.435 695.221C328.803 695.368 328.001 695.441 327.031 695.441C325.560 695.441 324.118 695.125 322.706 694.493C321.309 693.860 320.147 692.897 319.220 691.602C318.308 690.308 317.852 688.675 317.852 686.704V652.993ZM348.100 695.794C345.953 695.794 344.004 695.390 342.254 694.581C340.503 693.757 339.114 692.573 338.084 691.029C337.054 689.470 336.540 687.587 336.540 685.381C336.540 683.439 336.922 681.865 337.687 680.659C338.452 679.438 339.474 678.482 340.754 677.791C342.033 677.100 343.445 676.585 344.990 676.247C346.549 675.894 348.115 675.614 349.689 675.408C351.748 675.144 353.418 674.945 354.697 674.813C355.992 674.666 356.933 674.423 357.521 674.085C358.124 673.746 358.426 673.158 358.426 672.320V672.143C358.426 669.966 357.830 668.275 356.639 667.069C355.462 665.862 353.675 665.259 351.277 665.259C348.792 665.259 346.843 665.804 345.431 666.892C344.019 667.981 343.026 669.142 342.452 670.378L337.510 668.613C338.393 666.554 339.569 664.951 341.040 663.803C342.526 662.641 344.144 661.832 345.894 661.376C347.659 660.906 349.395 660.670 351.101 660.670C352.189 660.670 353.440 660.803 354.852 661.068C356.278 661.318 357.654 661.840 358.977 662.634C360.316 663.428 361.426 664.627 362.309 666.230C363.191 667.833 363.633 669.981 363.633 672.673V695H358.426V690.411H358.161C357.808 691.146 357.220 691.933 356.396 692.772C355.572 693.610 354.477 694.323 353.109 694.912C351.741 695.500 350.071 695.794 348.100 695.794ZM348.895 691.117C350.954 691.117 352.689 690.712 354.101 689.904C355.528 689.095 356.602 688.050 357.323 686.771C358.058 685.491 358.426 684.145 358.426 682.733V677.968C358.205 678.232 357.720 678.475 356.970 678.696C356.234 678.902 355.381 679.085 354.410 679.247C353.454 679.394 352.520 679.527 351.608 679.644C350.711 679.747 349.983 679.836 349.424 679.909C348.071 680.086 346.806 680.372 345.629 680.770C344.467 681.152 343.526 681.733 342.805 682.512C342.099 683.277 341.746 684.322 341.746 685.645C341.746 687.455 342.416 688.822 343.754 689.749C345.107 690.661 346.821 691.117 348.895 691.117ZM344.659 657.052L340.599 656.876C340.599 654.625 341.239 652.787 342.519 651.360C343.813 649.918 345.409 649.198 347.306 649.198C348.145 649.198 348.887 649.345 349.534 649.639C350.182 649.918 350.799 650.242 351.388 650.610C351.976 650.978 352.579 651.308 353.197 651.603C353.829 651.882 354.543 652.022 355.337 652.022C356.175 652.022 356.881 651.698 357.455 651.051C358.043 650.389 358.338 649.595 358.338 648.668L362.309 649.021C362.309 651.316 361.662 653.140 360.367 654.493C359.088 655.846 357.499 656.523 355.602 656.523C354.587 656.523 353.748 656.383 353.087 656.103C352.425 655.809 351.836 655.478 351.322 655.111C350.807 654.743 350.263 654.419 349.689 654.140C349.115 653.846 348.409 653.699 347.571 653.699C346.733 653.699 346.034 654.030 345.475 654.691C344.931 655.339 344.659 656.125 344.659 657.052ZM386.903 695.706C383.844 695.706 381.160 694.978 378.850 693.522C376.556 692.066 374.761 690.029 373.467 687.410C372.187 684.792 371.548 681.733 371.548 678.232C371.548 674.702 372.187 671.621 373.467 668.988C374.761 666.355 376.556 664.311 378.850 662.855C381.160 661.398 383.844 660.670 386.903 660.670C389.963 660.670 392.640 661.398 394.934 662.855C397.243 664.311 399.038 666.355 400.317 668.988C401.612 671.621 402.259 674.702 402.259 678.232C402.259 681.733 401.612 684.792 400.317 687.410C399.038 690.029 397.243 692.066 394.934 693.522C392.640 694.978 389.963 695.706 386.903 695.706ZM386.903 691.029C389.227 691.029 391.139 690.433 392.640 689.242C394.140 688.050 395.250 686.484 395.971 684.542C396.692 682.601 397.052 680.497 397.052 678.232C397.052 675.967 396.692 673.857 395.971 671.900C395.250 669.944 394.140 668.363 392.640 667.157C391.139 665.951 389.227 665.348 386.903 665.348C384.579 665.348 382.667 665.951 381.167 667.157C379.667 668.363 378.556 669.944 377.835 671.900C377.115 673.857 376.754 675.967 376.754 678.232C376.754 680.497 377.115 682.601 377.835 684.542C378.556 686.484 379.667 688.050 381.167 689.242C382.667 690.433 384.579 691.029 386.903 691.029ZM428.387 695V649.816H455.656V654.669H433.858V669.937H454.244V674.791H433.858V690.146H456.009V695H428.387ZM464.812 695V661.112H469.843V666.407H470.284C470.990 664.598 472.130 663.193 473.704 662.193C475.277 661.178 477.167 660.670 479.374 660.670C481.609 660.670 483.470 661.178 484.956 662.193C486.456 663.193 487.625 664.598 488.463 666.407H488.816C489.684 664.656 490.986 663.266 492.722 662.237C494.457 661.193 496.538 660.670 498.965 660.670C501.995 660.670 504.474 661.619 506.400 663.516C508.327 665.399 509.291 668.334 509.291 672.320V695H504.084V672.320C504.084 669.819 503.400 668.032 502.032 666.958C500.664 665.885 499.054 665.348 497.200 665.348C494.818 665.348 492.972 666.068 491.663 667.510C490.354 668.937 489.699 670.746 489.699 672.937V695H484.404V671.790C484.404 669.863 483.779 668.311 482.529 667.135C481.278 665.943 479.668 665.348 477.697 665.348C476.344 665.348 475.079 665.708 473.902 666.429C472.740 667.149 471.799 668.150 471.078 669.429C470.372 670.694 470.019 672.158 470.019 673.820V695H464.812ZM518.811 707.708V661.112H523.841V666.495H524.459C524.841 665.907 525.371 665.156 526.047 664.245C526.739 663.318 527.724 662.494 529.004 661.774C530.298 661.038 532.048 660.670 534.255 660.670C537.108 660.670 539.623 661.384 541.800 662.810C543.977 664.237 545.676 666.260 546.897 668.878C548.117 671.496 548.728 674.585 548.728 678.144C548.728 681.733 548.117 684.844 546.897 687.477C545.676 690.095 543.984 692.124 541.822 693.566C539.660 694.993 537.167 695.706 534.343 695.706C532.166 695.706 530.423 695.346 529.114 694.625C527.805 693.890 526.797 693.058 526.091 692.132C525.385 691.191 524.841 690.411 524.459 689.793H524.018V707.708H518.811ZM523.929 678.056C523.929 680.615 524.304 682.873 525.054 684.829C525.805 686.771 526.900 688.293 528.342 689.396C529.783 690.484 531.548 691.029 533.637 691.029C535.814 691.029 537.630 690.455 539.086 689.308C540.557 688.146 541.660 686.587 542.396 684.631C543.146 682.660 543.521 680.468 543.521 678.056C543.521 675.673 543.153 673.526 542.418 671.614C541.697 669.687 540.601 668.164 539.131 667.047C537.674 665.914 535.843 665.348 533.637 665.348C531.519 665.348 529.739 665.885 528.298 666.958C526.856 668.017 525.768 669.503 525.032 671.415C524.297 673.312 523.929 675.526 523.929 678.056ZM556.670 695V661.112H561.701V666.230H562.054C562.671 664.553 563.789 663.193 565.407 662.149C567.025 661.104 568.849 660.582 570.879 660.582C571.261 660.582 571.739 660.590 572.313 660.604C572.886 660.619 573.320 660.641 573.615 660.670V665.965C573.438 665.921 573.034 665.855 572.401 665.767C571.783 665.664 571.129 665.612 570.438 665.612C568.790 665.612 567.319 665.958 566.025 666.649C564.745 667.326 563.730 668.267 562.980 669.473C562.245 670.665 561.877 672.025 561.877 673.555V695H556.670ZM592.964 695.706C589.698 695.706 586.882 694.985 584.514 693.544C582.160 692.088 580.344 690.058 579.064 687.455C577.799 684.836 577.167 681.792 577.167 678.321C577.167 674.849 577.799 671.790 579.064 669.142C580.344 666.480 582.123 664.406 584.403 662.921C586.698 661.421 589.375 660.670 592.434 660.670C594.199 660.670 595.942 660.965 597.663 661.553C599.384 662.141 600.950 663.097 602.362 664.421C603.774 665.730 604.900 667.466 605.738 669.628C606.576 671.790 606.995 674.452 606.995 677.615V679.821H580.873V675.320H601.700C601.700 673.408 601.318 671.702 600.553 670.201C599.803 668.701 598.729 667.517 597.332 666.649C595.949 665.782 594.317 665.348 592.434 665.348C590.360 665.348 588.566 665.862 587.051 666.892C585.550 667.907 584.396 669.231 583.587 670.863C582.778 672.496 582.373 674.246 582.373 676.114V679.115C582.373 681.674 582.815 683.844 583.697 685.623C584.594 687.388 585.837 688.734 587.426 689.661C589.014 690.573 590.860 691.029 592.964 691.029C594.331 691.029 595.567 690.837 596.670 690.455C597.788 690.058 598.751 689.470 599.560 688.690C600.369 687.896 600.994 686.910 601.436 685.734L606.466 687.146C605.936 688.852 605.047 690.352 603.796 691.646C602.546 692.926 601.002 693.926 599.163 694.647C597.325 695.353 595.258 695.706 592.964 695.706ZM638.920 668.701L634.243 670.025C633.949 669.245 633.515 668.488 632.941 667.753C632.382 667.002 631.617 666.385 630.647 665.899C629.676 665.414 628.433 665.171 626.918 665.171C624.844 665.171 623.116 665.649 621.733 666.605C620.365 667.547 619.682 668.745 619.682 670.201C619.682 671.496 620.152 672.518 621.094 673.268C622.035 674.018 623.506 674.643 625.506 675.144L630.536 676.379C633.566 677.114 635.824 678.240 637.310 679.755C638.795 681.255 639.538 683.189 639.538 685.557C639.538 687.499 638.979 689.234 637.861 690.764C636.758 692.294 635.214 693.500 633.228 694.382C631.242 695.265 628.933 695.706 626.300 695.706C622.844 695.706 619.983 694.956 617.718 693.456C615.453 691.955 614.019 689.764 613.416 686.881L618.358 685.645C618.828 687.469 619.718 688.837 621.027 689.749C622.351 690.661 624.079 691.117 626.212 691.117C628.639 691.117 630.566 690.602 631.993 689.573C633.434 688.528 634.155 687.278 634.155 685.822C634.155 684.645 633.743 683.660 632.919 682.866C632.095 682.057 630.831 681.453 629.124 681.056L623.476 679.733C620.373 678.997 618.093 677.857 616.637 676.313C615.195 674.754 614.475 672.805 614.475 670.466C614.475 668.554 615.012 666.863 616.085 665.392C617.174 663.921 618.652 662.766 620.520 661.928C622.403 661.090 624.535 660.670 626.918 660.670C630.272 660.670 632.904 661.406 634.817 662.877C636.743 664.348 638.111 666.289 638.920 668.701ZM657.348 695.794C655.201 695.794 653.252 695.390 651.501 694.581C649.751 693.757 648.361 692.573 647.332 691.029C646.302 689.470 645.787 687.587 645.787 685.381C645.787 683.439 646.170 681.865 646.934 680.659C647.699 679.438 648.722 678.482 650.001 677.791C651.281 677.100 652.693 676.585 654.237 676.247C655.796 675.894 657.363 675.614 658.937 675.408C660.996 675.144 662.665 674.945 663.945 674.813C665.239 674.666 666.181 674.423 666.769 674.085C667.372 673.746 667.673 673.158 667.673 672.320V672.143C667.673 669.966 667.078 668.275 665.886 667.069C664.710 665.862 662.923 665.259 660.525 665.259C658.039 665.259 656.091 665.804 654.679 666.892C653.266 667.981 652.274 669.142 651.700 670.378L646.758 668.613C647.641 666.554 648.817 664.951 650.288 663.803C651.774 662.641 653.392 661.832 655.142 661.376C656.907 660.906 658.642 660.670 660.349 660.670C661.437 660.670 662.687 660.803 664.099 661.068C665.526 661.318 666.901 661.840 668.225 662.634C669.563 663.428 670.674 664.627 671.556 666.230C672.439 667.833 672.880 669.981 672.880 672.673V695H667.673V690.411H667.409C667.056 691.146 666.467 691.933 665.644 692.772C664.820 693.610 663.724 694.323 662.356 694.912C660.988 695.500 659.319 695.794 657.348 695.794ZM658.142 691.117C660.202 691.117 661.937 690.712 663.349 689.904C664.776 689.095 665.850 688.050 666.570 686.771C667.306 685.491 667.673 684.145 667.673 682.733V677.968C667.453 678.232 666.967 678.475 666.217 678.696C665.482 678.902 664.629 679.085 663.658 679.247C662.702 679.394 661.768 679.527 660.856 679.644C659.959 679.747 659.231 679.836 658.672 679.909C657.319 680.086 656.054 680.372 654.877 680.770C653.715 681.152 652.774 681.733 652.053 682.512C651.347 683.277 650.994 684.322 650.994 685.645C650.994 687.455 651.663 688.822 653.002 689.749C654.355 690.661 656.068 691.117 658.142 691.117ZM682.384 695V661.112H687.414V666.230H687.767C688.385 664.553 689.503 663.193 691.121 662.149C692.739 661.104 694.562 660.582 696.592 660.582C696.975 660.582 697.453 660.590 698.026 660.604C698.600 660.619 699.034 660.641 699.328 660.670V665.965C699.151 665.921 698.747 665.855 698.114 665.767C697.497 665.664 696.842 665.612 696.151 665.612C694.504 665.612 693.033 665.958 691.738 666.649C690.459 667.326 689.444 668.267 688.694 669.473C687.958 670.665 687.591 672.025 687.591 673.555V695H682.384ZM705.500 695V661.112H710.707V695H705.500ZM708.148 655.464C707.133 655.464 706.257 655.118 705.522 654.427C704.801 653.735 704.441 652.904 704.441 651.934C704.441 650.963 704.801 650.132 705.522 649.440C706.257 648.749 707.133 648.404 708.148 648.404C709.162 648.404 710.030 648.749 710.751 649.440C711.486 650.132 711.854 650.963 711.854 651.934C711.854 652.904 711.486 653.735 710.751 654.427C710.030 655.118 709.162 655.464 708.148 655.464ZM730.216 695.794C728.068 695.794 726.119 695.390 724.369 694.581C722.619 693.757 721.229 692.573 720.199 691.029C719.170 689.470 718.655 687.587 718.655 685.381C718.655 683.439 719.037 681.865 719.802 680.659C720.567 679.438 721.589 678.482 722.869 677.791C724.148 677.100 725.561 676.585 727.105 676.247C728.664 675.894 730.230 675.614 731.804 675.408C733.863 675.144 735.533 674.945 736.812 674.813C738.107 674.666 739.048 674.423 739.637 674.085C740.240 673.746 740.541 673.158 740.541 672.320V672.143C740.541 669.966 739.945 668.275 738.754 667.069C737.577 665.862 735.790 665.259 733.393 665.259C730.907 665.259 728.958 665.804 727.546 666.892C726.134 667.981 725.141 669.142 724.568 670.378L719.626 668.613C720.508 666.554 721.685 664.951 723.156 663.803C724.641 662.641 726.259 661.832 728.009 661.376C729.774 660.906 731.510 660.670 733.216 660.670C734.305 660.670 735.555 660.803 736.967 661.068C738.394 661.318 739.769 661.840 741.093 662.634C742.431 663.428 743.542 664.627 744.424 666.230C745.307 667.833 745.748 669.981 745.748 672.673V695H740.541V690.411H740.276C739.923 691.146 739.335 691.933 738.511 692.772C737.688 693.610 736.592 694.323 735.224 694.912C733.856 695.500 732.187 695.794 730.216 695.794ZM731.010 691.117C733.069 691.117 734.805 690.712 736.217 689.904C737.644 689.095 738.717 688.050 739.438 686.771C740.173 685.491 740.541 684.145 740.541 682.733V677.968C740.320 678.232 739.835 678.475 739.085 678.696C738.350 678.902 737.496 679.085 736.526 679.247C735.570 679.394 734.636 679.527 733.724 679.644C732.827 679.747 732.098 679.836 731.540 679.909C730.186 680.086 728.921 680.372 727.745 680.770C726.583 681.152 725.641 681.733 724.921 682.512C724.215 683.277 723.862 684.322 723.862 685.645C723.862 687.455 724.531 688.822 725.869 689.749C727.223 690.661 728.936 691.117 731.010 691.117ZM760.458 649.816V695H755.251V649.816H760.458Z" fill="#1B6097"/>
</svg>
