<svg width="485" height="104" viewBox="0 0 485 104" fill="none" xmlns="http://www.w3.org/2000/svg">
<path d="M405.826 57.6837C414.218 56.8967 421.641 63.1054 422.361 71.5117C423.08 79.9177 416.818 87.3002 408.417 87.9531C400.109 88.5989 392.834 82.4165 392.122 74.1046C391.412 65.7926 397.529 58.4617 405.826 57.6837Z" fill="currentColor"/>
<path d="M294.542 15.8916C297.108 15.8534 299.675 15.8578 302.243 15.9047C302.413 19.8928 302.534 29.5738 302.184 33.4659C306.254 29.9806 307.795 30.4646 313.006 30.6835C313.02 33.175 313.006 35.6667 312.968 38.1582C309.603 38.4164 305.8 38.338 302.389 38.3323C302.326 48.5475 302.314 58.7628 302.354 68.9782C304.41 69.001 311.553 68.9552 313.178 69.258L313.396 69.6205L313.332 76.995L304.725 77.0502C301.701 77.0552 298.889 77.0632 296.577 74.7229C295.614 73.7381 294.961 72.4927 294.698 71.1407C294.213 68.6357 294.396 62.312 294.396 59.401V38.3257C292.289 38.3383 290.183 38.3096 288.077 38.2399C287.966 35.8328 288.039 33.0359 288.053 30.5916L294.412 30.5537C294.403 26.2328 294.242 20.1096 294.542 15.8916Z" fill="currentColor"/>
<path d="M448.697 57.5176C452.401 57.5958 455.955 58.9919 458.724 61.4554C461.741 64.1881 463.552 68.0081 463.758 72.0765C463.985 76.0813 462.584 80.0079 459.872 82.9626C456.779 86.3818 453.066 87.9285 448.496 88.1505C439.686 87.7551 434.205 81.4391 433.448 72.9352C438.259 72.7573 443.825 72.8739 448.678 72.867L448.697 57.5176Z" fill="currentColor"/>
<path d="M405.286 16.3978C409.049 15.8161 413.796 16.9768 416.757 19.42C420.78 22.7404 421.894 26.3248 422.427 31.2829L407.236 31.2981C407.128 35.242 407.156 39.3373 407.132 43.2934L407.111 46.5321C403.77 46.2499 401.424 45.6818 398.585 43.7605C395.295 41.5244 393.042 38.059 392.332 34.1435C391.596 30.1365 392.474 26.0007 394.779 22.6416C397.392 18.8197 400.89 17.2133 405.286 16.3978Z" fill="currentColor"/>
<path d="M446.693 16.4067C454.654 15.0022 462.068 20.7765 463.509 28.6278C464.219 32.6732 463.318 36.836 460.999 40.2232C458.594 43.7095 454.803 45.6175 450.723 46.3713C450.009 46.45 449.505 46.5639 448.837 46.2898C448.482 45.066 448.672 33.2998 448.681 31.3269C443.754 31.1951 438.399 31.2849 433.438 31.2733C433.751 23.1736 438.829 17.7323 446.693 16.4067Z" fill="currentColor"/>
<path d="M162.715 30.6045C165.13 30.5508 167.765 30.6145 170.198 30.6292C170.415 45.5725 170.412 62.0644 170.14 76.993C167.834 77.0776 165.118 77.0189 162.781 77.026L162.715 30.6045Z" fill="currentColor"/>
<path d="M165.396 15.9563C167.267 15.5942 169.188 16.2726 170.418 17.73C171.648 19.1874 171.995 21.1965 171.326 22.9829C170.657 24.7693 169.075 26.0542 167.191 26.3425C164.356 26.7763 161.696 24.8593 161.207 22.0303C160.718 19.2015 162.581 16.5012 165.396 15.9563Z" fill="currentColor"/>
<path fill-rule="evenodd" clip-rule="evenodd" d="M67.0167 51.8717C66.0194 38.6037 54.4797 28.6493 41.2241 29.6218C27.932 30.5971 17.9547 42.1878 18.9548 55.4922C19.9549 68.7966 31.5525 78.7622 44.8408 77.735C58.0924 76.7108 68.0139 65.1396 67.0167 51.8717ZM58.7662 51.4713C57.568 42.7175 49.485 36.61 40.747 37.8561C32.0748 39.0927 26.0294 47.1106 27.2188 55.7985C28.4079 64.4867 36.3846 70.581 45.0697 69.437C53.8204 68.2842 59.9645 60.2251 58.7662 51.4713Z" fill="currentColor"/>
<path fill-rule="evenodd" clip-rule="evenodd" d="M103.799 30.5659C100.756 29.9017 98.5954 29.9166 95.5353 30.1478C89.7112 31.1009 87.7328 32.1335 83.0334 35.5651L82.974 30.4551C80.4021 30.4387 77.83 30.448 75.2583 30.483C75.0446 41.1474 74.9786 51.8144 75.0603 62.4807C74.9805 72.1728 75.042 81.8657 75.2451 91.5559C77.8148 91.6405 80.3863 91.6611 82.9572 91.618L83.0209 72.2072L83.213 71.8054C83.7182 71.9181 84.4905 72.5102 85.1645 73.0269C85.4873 73.2744 85.7876 73.5046 86.0251 73.6565C99.6935 82.3968 117.517 74.7922 120.987 59.0174C122.423 52.6121 121.264 45.8978 117.764 40.3462C114.587 35.363 109.565 31.8457 103.799 30.5659ZM113.843 51.8089C112.845 43.2745 105.12 37.1695 96.5959 38.1792C88.0872 39.187 82.002 46.9036 82.9979 55.4226C83.9939 63.9418 91.6945 70.0432 100.206 69.0573C108.732 68.0691 114.841 60.3433 113.843 51.8089Z" fill="currentColor"/>
<path fill-rule="evenodd" clip-rule="evenodd" d="M357.043 35.7064C352.15 31.9517 346.425 29.201 340.019 30.1801C332.927 30.9742 328.215 33.1554 323.652 38.873C319.696 43.8205 317.897 50.1555 318.666 56.4462C320.107 69.255 331.578 78.8277 344.508 77.3156C346.931 77.0079 349.298 76.364 351.541 75.4026C353.311 74.4989 354.996 73.2531 356.614 72.057C356.758 71.9509 356.901 71.8452 357.043 71.7401L357.129 76.9948C359.736 77.0278 362.347 77.0372 364.957 77.0237L365.026 30.6686C362.396 30.5876 359.767 30.5608 357.138 30.5883L357.043 35.7064ZM357.299 53.2829C357.05 44.7369 349.948 37.9994 341.41 38.2122C332.825 38.4261 326.047 45.5855 326.295 54.1801C326.544 62.7749 333.724 69.5304 342.307 69.2475C350.843 68.9661 357.545 61.8287 357.299 53.2829Z" fill="currentColor"/>
<path fill-rule="evenodd" clip-rule="evenodd" d="M252.842 30.156C252.783 30.1627 252.726 30.1698 252.669 30.1773C245.646 30.9544 241 33.128 236.478 38.6987C223.224 55.0281 236.322 79.6363 257.284 77.3156C259.696 77.0515 262.677 76.2555 264.843 75.0807C266.359 74.2775 267.731 73.207 269.093 72.1451C269.314 71.9721 269.536 71.7992 269.758 71.6279L269.786 76.9944C272.472 77.0276 275.158 77.0304 277.846 77.0022L277.849 30.6317C275.165 30.6005 272.482 30.5848 269.798 30.5848L269.694 35.7232C264.788 31.7985 259.315 29.414 252.842 30.156ZM269.987 53.3253C269.767 44.7916 262.706 38.0373 254.179 38.2048C245.577 38.3739 238.757 45.5205 238.979 54.131C239.202 62.7414 246.384 69.5244 254.984 69.2465C263.508 68.971 270.21 61.8592 269.987 53.3253Z" fill="currentColor"/>
<path fill-rule="evenodd" clip-rule="evenodd" d="M216.166 15.8884C218.764 15.8568 221.363 15.861 223.962 15.9009C223.76 25.5633 223.809 35.5452 223.858 45.4181C223.879 49.7316 223.9 54.0242 223.9 58.2604L223.884 70.4395C223.884 70.6157 223.883 70.8356 223.882 71.0874C223.875 72.7937 223.861 75.97 224.047 77.0009C221.438 77.0371 218.829 77.0355 216.22 76.9957C216.143 75.832 216.111 74.559 216.08 73.3228C216.066 72.7788 216.053 72.2568 216.036 71.753C212.044 74.8091 208.411 76.7938 203.299 77.3479C197.265 78.0416 191.207 76.2525 186.516 72.3903C182.8 69.3826 180.32 66.029 178.849 61.4582C171.509 38.6566 196.985 20.202 216.049 35.7311C216.157 32.138 216.146 28.388 216.135 24.6343C216.126 21.6916 216.117 18.7545 216.166 15.8884ZM200.102 38.1788C208.707 37.8064 215.971 44.5143 216.294 53.1307C216.617 61.7468 209.876 68.9811 201.267 69.2556C192.727 69.5281 185.571 62.8446 185.25 54.2972C184.93 45.7497 191.565 38.5481 200.102 38.1788Z" fill="currentColor"/>
<path d="M134.205 15.9007C136.776 15.8794 139.44 15.8184 142.002 15.9226C141.997 21.0049 141.784 28.6445 142.168 33.5024C145.654 29.8145 148.031 30.5446 152.757 30.6051L152.831 38.1596C149.357 38.4117 145.541 38.3487 142.031 38.3563L142.018 68.9713C145.72 69.0038 149.422 69.0661 153.123 69.1583L153.064 76.994C143.376 77.0526 134.692 79.662 134.079 67.1105L134.159 38.2873C132.129 38.2527 129.834 38.2608 127.825 38.1722C127.819 35.7172 127.763 33.0316 127.862 30.6017L134.164 30.5591C134.055 25.3003 134.175 21.067 134.205 15.9007Z" fill="currentColor"/>
</svg>
