<svg width="600" height="258" viewBox="0 0 600 258" fill="none" xmlns="http://www.w3.org/2000/svg">
<path d="M371.057 65.3985C375.296 65.1332 385.178 65.2919 389.651 65.3809C402.111 65.7716 414.363 64.177 426.527 67.3963C442.655 71.4186 452.232 84.5335 452.59 100.972C452.754 108.488 450.741 116.421 449.531 123.889C448.518 130.122 447.562 136.73 445.808 142.807C441.788 156.723 434.391 165.336 421.866 172.203C403.755 180.298 387.331 178.405 368.027 178.514C363.378 178.54 351.208 179.123 347.619 177.314C347.13 176.658 346.532 175.481 346.582 174.675C346.948 168.703 348.401 162.153 349.436 156.259L354.387 127.869L360.48 93.1822C361.623 86.6116 362.678 80.0219 363.937 73.4732C364.898 68.4772 365.672 66.1862 371.057 65.3985ZM381.894 150.502C390.313 150.161 400.362 151.698 407.52 147.363C415.494 141.654 415.412 135.956 417.182 126.928C418.075 122.36 418.746 116.932 419.646 112.471C424.468 88.5426 405.835 94.8307 392.109 93.3866C390.732 104.943 387.68 118.067 385.884 129.728C385.371 133.064 382.781 148.026 381.894 150.502Z" fill="#FEFEFE"/>
<path d="M173.108 65.4218C178.048 65.0484 188.015 65.3876 193.426 65.4004L211.258 65.3893C218.119 65.3756 224.05 65.0768 230.827 66.6222C251.094 71.244 256.704 89.9307 251.942 108.368C248.274 122.568 242.138 129.215 229.907 136.696C232.523 141.225 242.519 169.024 243.078 174.209C242.09 176.208 240.75 178.112 238.266 178.341C232.235 178.898 226.004 178.415 219.929 178.523C216.292 178.587 211.003 177.796 208.368 175.075C203.815 168.332 201.916 149.372 196.528 142.245C192.819 140.688 190.142 141.112 186.088 140.948C185.213 147.234 182.035 171.152 179.429 175.538C178.592 176.947 177.01 177.794 175.463 178.194C172.699 178.909 152.805 178.984 150.666 177.602C149.898 177.105 149.303 175.895 149.112 175.021C148.382 171.676 158.476 118.389 159.643 111.733C161.847 99.1665 163.678 86.4308 166.224 73.9358C166.581 72.1843 166.991 69.4831 168.028 68.0033C169.216 66.3097 171.174 65.7182 173.108 65.4218ZM214.593 112.209C221.031 106.979 223.676 94.3899 212.45 93.5213C206.611 93.0694 200.607 93.8663 194.624 93.3459C193.824 98.4962 192.112 109.406 190.679 114.169C196.85 114.075 210.118 115.21 214.593 112.209Z" fill="#FEFEFE"/>
<path d="M277.828 65.414C280.629 65.2052 285.737 65.3771 288.747 65.3815L310.069 65.4082L333.422 65.3842C337.471 65.3751 348.436 64.5739 350.865 67.0578C353.004 69.2477 349.169 85.1348 348.395 88.5474C347.607 92.0317 344.212 93.3208 341.045 93.4649C334.822 93.7478 328.52 93.4546 322.286 93.5554C314.868 93.3044 306.299 94.1182 299.016 93.3603C298.655 96.8092 297.589 104.278 296.335 107.361C306.193 106.49 318.12 107.805 328.154 107.276C332.2 107.063 337.128 107.927 335.748 113.449C334.192 119.683 334.602 129.081 330.249 134.126C327.765 136.432 312.17 135.249 308.648 135.555C303.469 135.47 296.596 135.86 291.665 135.321C291.39 139.051 289.953 145.834 289.229 149.591L289.147 150.143C290.308 151.312 331.72 149.273 336.384 151.213C339.888 152.67 335.344 171.581 334.137 174.556C332.599 178.348 329.985 178.386 326.549 178.521C315.035 177.057 261.438 180.828 254.736 177.4C254.034 176.626 253.715 175.931 253.557 174.894C253.002 171.256 259.299 139.819 260.337 133.855L267.744 91.5315C268.801 85.5773 269.716 79.5964 270.864 73.6607C271.789 68.8837 272.579 66.1558 277.828 65.414Z" fill="#FEFEFE"/>
<path d="M185.23 12.4188C185.422 12.399 185.608 12.3902 185.801 12.3895C193.195 12.3629 252.058 11.9359 253.943 12.7425C257.211 14.1404 267.303 25.3069 270.528 28.5031C266.059 32.7072 260.765 38.3607 256.34 42.7903C255.644 43.499 254.668 44.0964 253.829 44.6561C250.048 44.8839 244.426 44.7123 240.499 44.7105L215.136 44.702L193.292 44.724C186.579 44.7442 170.222 47.0141 174.032 35.933C176.869 27.6819 174.32 13.2101 185.23 12.4188Z" fill="#F4A236"/>
<path d="M343.931 12.2849C346.752 12.1412 353.323 12.3909 356.464 12.3849L389.162 12.4036L410.807 12.3816C415.491 12.377 419.956 12.2684 424.635 12.7281C432.111 13.4631 437.859 19.6285 438.586 27.0854C439.017 31.3719 437.689 35.6499 434.909 38.9409C431.921 42.5485 428.145 44.1267 423.577 44.5478C417.624 44.8541 345.299 44.7206 344.739 44.4828C345.176 42.9049 357.73 30.9968 360.023 28.5973C358.078 26.8747 344.821 13.9685 343.931 12.2849Z" fill="#3377B8"/>
<path d="M258.592 12.3541C264.836 12.5593 272.06 12.3756 278.402 12.3752L316.234 12.3608C321.402 12.3509 335.59 12.0074 339.911 12.6005C343.166 14.7412 352.597 25.07 356.326 28.4875C352.96 32.1259 343.887 41.5307 340.254 44.4106C337.055 45.2022 258.999 44.5632 258.878 44.5105C259.496 42.8916 272.34 30.423 274.35 28.575C272.056 26.3531 259.355 14.2304 258.592 12.3541Z" fill="#E0206E"/>
<path d="M379.233 198.076C385.139 197.311 390.269 198.393 395.739 200.527C394.91 203.516 393.838 210.856 393.263 214.173L388.64 240.988C387.389 241.016 386.056 241.055 384.811 241.103C382.183 241.205 382.198 240.349 381.738 238.305C380.929 238.917 380.045 239.527 379.218 240.12C377.68 240.979 375.574 241.54 373.845 241.762C359.789 243.613 360.173 229.481 362.048 219.869C364.139 209.157 366.826 199.402 379.233 198.076ZM375 236.552C378.073 236.545 378.852 236.402 381.606 235.018C383.466 225.109 384.972 212.786 387.152 203.313C385.075 203.353 382.998 203.366 380.921 203.351C371.595 203.984 370.242 218.18 369.378 225.279C368.783 230.144 368.985 235.924 375 236.552Z" fill="#FEFEFE"/>
<path d="M332.496 201.564C336.759 199.08 341.174 197.433 346.178 198.098C348.454 198.4 350.669 199.207 352.081 201.118C354.161 203.93 353.701 207.748 353.244 210.99C352.767 214.368 348.375 240.048 347.742 240.48C346.342 241.436 342.179 241.111 340.573 240.763C339.029 238.958 346.925 209.965 344.854 205.694C342.92 201.702 337.04 203.314 333.694 204.59C334.143 210.808 332.019 219.012 331.069 225.286C330.65 228.059 329.733 233.77 329.045 236.265C328.825 237.828 328.641 239.395 328.488 240.966C326.795 240.989 322.14 241.187 320.851 240.701C319.336 237.605 327.419 210.961 325.064 205.6C323.338 201.667 317.9 203.275 314.865 204.609C314.458 208.35 313.38 213.655 312.712 217.491L308.616 240.854C306.703 240.942 302.736 241.264 301.107 240.655C300.639 239.414 307.04 202.426 308.332 199.072C309.07 198.459 313.553 198.622 314.391 199.12C314.625 199.847 314.566 200.165 314.523 200.905C315.401 200.921 318.586 198.625 321.996 198.048C325.652 197.472 330.337 198.287 332.496 201.564Z" fill="#FEFEFE"/>
<path d="M281.751 198.072C296.716 195.789 302.224 209.103 292.758 219.523C288.507 224.204 278.122 223.608 272 223.33C271.922 224.787 271.858 226.245 271.81 227.703C271.547 237.844 279.734 236.608 287.151 236.547C288.103 236.389 288.548 236.256 289.479 236.521C290.247 237.193 290.085 236.87 290.244 237.725C288.593 243.502 271.899 242.426 268.359 239.466C259.713 232.235 265.691 211.427 270.907 203.575C273.327 199.93 277.702 198.623 281.751 198.072ZM280.444 218.079C282.996 218.016 284.983 217.788 286.84 215.787C289.687 212.72 290.364 207.043 287.169 203.98C286.167 203.019 284.337 202.424 282.967 202.685C280.028 203.396 278.244 204.726 276.733 207.352C275.554 209.404 272.748 215.898 273.387 218.004C274.312 218.3 279.168 218.102 280.444 218.079Z" fill="#FEFEFE"/>
<path d="M243.6 189.375C246.236 189.309 248.961 189.352 251.604 189.359C250.666 192.736 250.585 196.044 249.403 199.574C253.349 199.365 257.539 199.637 261.709 199.429C261.283 201.036 261.171 202.224 259.913 203.318C257.62 205.313 251.559 205.594 248.618 205.305C247.807 210.394 246.939 215.473 246.014 220.542C245.461 223.66 243.323 232.556 245.668 235.307C247.16 237.058 253.17 236.58 255.631 236.528C256.045 236.459 255.991 236.529 256.458 236.757C256.542 237.188 256.546 237.285 256.436 237.717C256.117 239.012 255.275 240.117 254.11 240.768C251.905 242.014 244.253 242.063 241.593 241.202C232.277 238.185 238.125 223.05 238.745 216.083C238.988 213.358 240.04 207.876 240.733 205.415C234.744 205.835 235.499 204.562 237.208 199.457L241.941 199.371C242.5 196.393 242.425 192.144 243.6 189.375Z" fill="#FEFEFE"/>
<path d="M417.313 198.081C420.357 197.748 429.855 197.456 430.799 201.056C430.351 203.262 429.352 203.317 427.151 203.436C422.54 203.529 413.49 201.908 411.688 208.281C409.702 217.633 428.042 216.517 427.989 226.575C427.939 236.068 423.023 240.871 413.698 241.619C410.812 241.916 400.98 242.1 399.123 239.754C398.871 238.859 398.81 238.715 399.164 237.836C399.735 237.172 400.359 236.801 401.268 236.68C406.898 235.929 414.278 237.926 418.614 233.168C420.149 231.483 420.296 227.376 418.629 225.671C414.809 221.431 403.564 219.959 403.412 212.617C403.204 202.706 408.803 198.964 417.313 198.081Z" fill="#FEFEFE"/>
<path d="M214.937 198.083C220.327 197.541 223.891 198.146 228.949 199.828L227.863 203.182C222.22 203.868 208.605 201.074 209.424 210.421C210.043 217.485 225.827 217.2 225.724 226.609C225.608 237.127 220.051 241.065 210.571 241.684C207.935 241.952 194.133 242.649 197.503 237.031C199.862 235.22 212.75 238.586 216.067 233.485C222.053 224.281 210.182 222.959 205.019 218.832C199.431 214.367 200.641 207.548 204.342 202.442C206.579 199.397 211.33 198.388 214.937 198.083Z" fill="#FEFEFE"/>
<path d="M159.164 198.079C162.284 197.784 171.673 197.47 172.921 200.855C172.778 201.92 172.752 202.059 172.129 202.929C167.935 204.816 159.051 201.134 155.14 205.959C150.658 211.136 156.153 215.055 160.979 216.945C170.814 220.796 172.837 228.805 166.558 237.181C164.047 240.53 159.024 241.4 154.919 241.687C153.242 241.889 138.905 242.412 141.379 237.77C142.609 236.11 146.236 236.412 147.982 236.455C151.82 236.551 158.137 236.811 160.629 233.231C166.337 225.034 154.649 222.606 149.815 219.132C143.966 214.929 144.741 208.131 148.34 202.771C150.648 199.39 155.351 198.519 159.164 198.079Z" fill="#FEFEFE"/>
<path d="M185.975 198.628C188.217 198.481 191.119 198.593 193.412 198.619C191.636 206.892 190.616 215.65 188.943 223.973C187.846 229.432 187.246 235.125 185.903 240.527L185.379 240.831C182.98 241.054 180.488 240.99 178.073 240.975C178.12 239.733 179.066 233.77 179.372 232.665C180.862 227.269 183.878 200.958 185.975 198.628Z" fill="#FEFEFE"/>
<path d="M194.739 183.487C195.028 183.384 195.222 183.45 195.55 183.483L195.845 184.053C195.801 185.619 194.729 191.81 193.753 192.854C192.311 193.708 189.844 193.36 188.094 193.294L187.202 193.179C185.791 191.832 187.193 184.184 188.094 193.294C189.845 183.461 193.61 183.541 194.739 183.487Z" fill="#FEFEFE"/>
</svg>
