<svg width="1600" height="800" viewBox="0 0 1600 800" fill="none" xmlns="http://www.w3.org/2000/svg">
<path d="M1015.4 77.2124C1027.82 81.3288 1040.18 85.6327 1052.48 90.1233L1053.07 390.33C1053.06 435.226 1054.24 485.876 1052.98 530.307L1052.83 531.382L1051.9 531.688C1047.05 528.982 1020.11 507.377 1014.22 502.798C1006.92 484.301 998.25 464.678 990.515 446.258L947.328 343.37C939.039 323.702 928.945 301.262 921.539 281.449C905.296 284.149 879.023 289.374 863.242 290.908C856.249 310.842 847.39 332.47 839.726 352.297L796.726 463.551L759.761 559.246C753.236 576.137 746.046 596.21 738.825 612.636L738.167 614.855L737.002 615.387C733.407 611.289 717.167 585.644 713.952 580.204L712.63 267.947C712.629 227.118 711.395 178.163 712.931 138.062C723.279 136.511 736.837 133.349 747.257 131.241L810.625 118.505L1015.4 77.2124Z" fill="#FE9A20"/>
<path d="M1015.4 77.2124C1027.82 81.3288 1040.18 85.6327 1052.48 90.1233C948.367 109.801 843.992 131.927 739.86 151.12L738.252 469.561L737.914 541.767C737.79 551.227 736.474 608.051 738.825 612.636L738.167 614.855L737.002 615.387C733.407 611.289 717.167 585.644 713.952 580.204L712.63 267.947C712.629 227.118 711.395 178.163 712.931 138.062C723.279 136.511 736.837 133.349 747.257 131.241L810.624 118.505L1015.4 77.2124Z" fill="#FE5E00"/>
<path d="M921.539 281.449C929.992 279.686 938.687 278.351 947.219 276.943C957.633 302.085 1050.8 528.856 1052.69 530.242L1052.98 530.307L1052.83 531.382L1051.9 531.688C1047.05 528.982 1020.11 507.377 1014.22 502.798C1006.92 484.301 998.25 464.678 990.516 446.258L947.328 343.37C939.039 323.702 928.945 301.262 921.539 281.449Z" fill="#FE5E00"/>
<path d="M524.458 437.731C521.937 430.209 519.83 424.063 529.355 420.577C536.869 417.808 545.5 417.313 553.095 415.019C571.648 409.414 589.827 403.613 608.728 399.238C614.661 396.698 618.073 395.697 624.162 392.454C640.165 383.932 666.629 386.756 677.89 400.983C680.731 404.572 684.446 429.399 686.613 435.546C688.725 441.541 691.532 453.472 692.872 460.12C693.639 465.487 692.685 475.856 690.446 480.569C679.271 504.1 639.013 521.285 615.976 530.525C623.95 538.15 633.881 545.223 641.478 552.769C656.408 568.62 671.262 580.17 688.969 590.395C700.062 596.8 688.98 616.799 711.561 633.416C705.714 632.128 700.38 631.271 694.46 630.346L692.189 632.438C690.757 631.83 686.014 628.837 684.429 627.886C688.646 634.795 694.707 640.682 700.265 646.617C696.094 644.191 692.488 641.388 688.003 639.148C681.633 635.965 672.086 632.945 666.182 629.159C641.186 613.133 615.52 595.178 595.382 573.163C587.054 564.059 576.92 550.666 569.168 541.029C567.159 561.762 561.809 584.743 559.33 606.049C556.464 630.681 558.865 648.79 558.528 673.097C554.291 659.987 553.421 661.154 546.403 649.904L534.902 650.649C534.155 648.251 533.279 644.442 531.538 642.843C529.632 642.535 518.925 640.332 518.796 640.354L517.312 643.238L515.976 643.454C500.035 636.473 504.103 636.284 504.86 619.145C505.761 598.733 507.546 578.196 509.564 557.865C499.789 547.584 495.759 542.301 507.002 537.256C507.642 536.969 504.223 531.809 506.733 528.433C512.182 521.104 512.97 513.113 522.478 510.217C523.607 503.899 526.564 486.638 526.102 481.027C524.693 463.902 516.446 455.667 524.458 437.731ZM598.794 485.478C617.145 473.959 657.581 472.22 668.14 450.069C671.373 443.287 654.9 437.634 649.798 437.702C644.477 437.771 637.494 436.923 631.828 437.76C616.407 440.174 582.367 447.741 570.268 459.411C569.339 460.394 568.633 463.235 569.32 464.42C573.868 472.26 578.004 480.01 581.956 488.221C586.018 496.662 594.266 489.177 598.794 485.478Z" fill="#00AA7D"/>
<path d="M1418.4 204.236C1429.04 206.727 1439.95 236.094 1443.16 245.602C1444.84 250.542 1448.05 266.03 1450.82 268.689C1453.16 269.162 1452.25 269.331 1454.23 268.084C1456.24 264.162 1451.3 256.153 1454.3 253.362C1456.01 254.26 1457.54 255.142 1459.2 256.116C1461.05 250.926 1445.88 222.182 1442.93 214.757C1461.09 238.76 1461.16 243.001 1473.41 268.68C1473.03 258.398 1468.42 251.205 1467.55 243.741L1468.27 244.037C1476.1 261.903 1479.27 272.516 1481.04 291.943C1482.6 288.998 1483.59 285.012 1484.52 281.746C1498.72 324.621 1500.09 376.65 1471.07 413.898C1447.08 444.691 1401.89 467.466 1363.69 473.487C1334.95 478.013 1309.48 470.459 1286.47 453.176C1268.67 439.893 1259.81 427.064 1257.88 404.964C1257.22 397.348 1255.72 391.189 1256.5 382.887C1258.49 361.753 1267.48 335.942 1278.02 317.707C1282.91 309.248 1290.87 299.052 1296.7 291.256C1316.14 266.15 1342.45 247.736 1371.57 235.46C1377.08 233.139 1404.59 222.033 1409.86 223.77C1412.4 229.105 1403.14 233.569 1402.34 239.43C1404.59 240.568 1405.99 238.609 1409.95 238.662C1409.24 245.885 1396.93 253.988 1411.09 260.666C1413.53 261.817 1411.6 270.776 1411.14 273.468C1414.66 272.625 1417.84 271.535 1420.98 273.148C1421.24 280.669 1420.04 292.358 1416.88 299.299C1413.62 301.68 1397.59 298.012 1391.3 297.827C1386.77 297.731 1382.23 298.157 1377.8 299.094C1358.84 303.019 1335.27 330.588 1323.8 345.729C1295.24 383.373 1310.48 469.276 1372.73 437.326C1414.31 415.98 1442.59 372.501 1437.33 324.852C1436.48 317.166 1433.73 307.544 1431.91 299.819C1434.03 301.853 1438.38 306.269 1440.98 306.658C1443.55 301.789 1437.77 278.426 1436.38 271.827C1435.15 265.903 1429.77 254.43 1430.23 248.212L1431.71 247.619C1434.89 247.752 1438.11 249.741 1441 251.218C1436.7 233.529 1435.15 227.657 1422.67 214.03C1418.91 209.933 1417.96 209.16 1418.4 204.236Z" fill="#00AA7D"/>
<path d="M251.385 453.387C255.346 452.8 264.67 452.915 268.626 454.037C270.441 454.551 272.6 456.442 273.281 458.324C275.58 464.685 272.077 471.251 270.793 477.401C270.112 480.667 271.268 482.001 269.795 485.276C263.956 491.304 253.428 485.892 250.996 490.709L250.28 490.669C256.881 491.081 272.466 490.656 269.438 501.312C267.811 507.035 260.952 509.77 256.164 512.588L256.385 513.731C260.011 514.819 262.249 515.217 266.004 515.834C266.812 517.984 266.839 517.123 266.146 519.099C260.726 524.973 235.766 524.02 225.962 526.023C214.971 528.268 174.612 545.453 177.581 558.189C181.456 562.776 196.438 563.712 202.75 565.132C225.107 570.161 248.749 572.699 270.367 580.38C277.504 582.916 286.801 590.272 289.464 597.656C295.548 618.993 287.76 632.991 279.75 650.959L267.844 677.611C252.781 684.621 236.025 690.299 221.206 697.405C201.859 706.682 188.95 708.836 168.221 713.087C158.088 715.234 148.039 717.766 138.096 720.676C134.556 721.77 129.843 722.85 126.19 722.006C123.225 718.717 126.49 713.588 124.926 709.634C124.632 708.892 122.676 707.611 121.45 705.125C122.121 703.419 122.525 703.007 123.636 701.518C122.8 698.845 118.217 696.5 115.361 694.498C114.454 691.838 117.05 692.979 117.739 688.677C113.321 689.295 108 690.434 103.545 691.281C107.799 688.137 113.918 685.232 116.865 682.117C117.707 678.599 110.241 679.224 108.248 674.803L108.879 673.39C116.857 668.192 154.343 662.156 165.91 659.669C190.349 654.413 228.763 642.049 243.372 620.138C220.089 615.17 162.878 610.1 145.418 597.654C141.915 595.157 138.781 592.103 137.149 588.05C134.293 580.957 136.08 572.691 134.664 565.247C132.99 556.444 128.177 548.199 126.811 539.374C126.339 536.32 126.727 534.184 128.596 531.662C132.661 526.18 142.463 519.295 148.014 514.294C178.345 486.965 209.582 460.084 251.385 453.387Z" fill="#00AA7D"/>
<path d="M495.435 408.685C498.42 408.556 497.462 408.234 499.728 409.447C500.264 411.249 500.533 412.46 500.879 414.308C502.451 415.627 503.411 415.556 505.471 415.818L506.244 415.914L506.1 416.535C500.721 420.144 497.344 421.863 491.499 424.747L491.926 424.637C496.8 423.381 505.313 420.558 509.413 422.974C509.055 425.032 506.724 426.679 505.04 428.241C506.063 429.02 507.342 427.192 510.078 427.339C510.039 430.119 504.865 435.23 502.802 437.567C503.349 443.482 503.673 449.419 501.848 455.054C501.174 457.134 499.663 461.991 499.513 463.96L502.634 465.817L502.77 467.102C497.733 473.448 480.51 475.181 472.89 477.739C468.296 479.282 462.202 481.6 457.964 483.887L458.26 484.732L462.56 485.655L462.464 486.127C451.431 489.091 434.996 493.474 423.893 494.847C402.063 550.018 398.428 592.067 397.553 650.457C397.444 657.792 401.719 662.956 401.475 669.851C400.516 672.726 397.631 674.753 395.274 676.778C396.341 683.621 396.827 690.541 396.728 697.466C393.9 691.232 389.395 667.415 379.644 670.836C379.038 672.749 378.622 673.915 377.806 675.746C372.944 676.203 363.923 657.836 356.863 658.521C356.583 658.549 355.765 660.481 353.114 660.967L350.156 658.095C332.197 644.802 360.437 528.753 366.12 507.011C335.651 515.948 335.163 518.183 311.903 537.481C308.47 532.276 305.831 526.828 302.985 521.286C303.922 516.142 308.382 508.196 310.528 501.978C307.337 491.378 305.576 483.784 313.485 475.127C313.181 470.721 312.588 465.833 312.138 461.406C359.138 457.135 391.365 442.56 435.465 426.901C455.846 419.664 474.618 414.207 495.435 408.685Z" fill="#00AA7D"/>
<path d="M1260.56 255.523C1265.04 256.318 1263.73 259.265 1265.25 262.362C1265.48 262.824 1268.81 260.882 1270.98 262.443C1268.83 265.927 1258.77 270.258 1254.63 272.249C1256.56 271.705 1258.5 271.195 1260.45 270.721C1263.89 269.891 1270.01 268.205 1272.95 270.01C1272.74 272.409 1272.05 272.455 1270.21 274.618C1271.48 275.116 1272.05 274.805 1273.4 274.455L1273.9 274.319L1274.02 275.445C1271.75 279.423 1269.59 281.541 1266.52 284.859C1266.52 296.058 1260.38 304.474 1254.82 314.091C1259.13 313.767 1262.42 313.798 1266.71 313.866C1250.27 324.002 1237.62 322.618 1221.53 331.362L1222.05 332.172L1225.99 332.971C1215.65 335.758 1197.73 340.746 1187.7 342.084C1181.81 358.727 1175.56 376.341 1171.34 393.462C1163.23 426.333 1163.11 457.663 1161.45 491.094C1160.99 500.451 1164.58 507.475 1164.98 516.5C1165.13 519.712 1161.73 521.878 1159.24 523.791C1160.05 531.063 1160.63 536.466 1160.69 543.841C1156.25 535.873 1155.35 519.475 1144.55 517.384C1142.59 518.659 1143.34 519.923 1141.69 522.852C1136.53 522.93 1130.5 509.829 1125.2 507.143C1119.48 504.252 1120.06 508.319 1117.18 509.014L1116.28 507.254C1114.66 505.407 1112.61 504.059 1110.62 502.586C1104.01 460.335 1118.81 395.141 1130.2 353.885C1112.28 359.909 1097.65 364.105 1084.08 377.657C1081.95 379.784 1078.05 383.828 1075.07 383.006C1072.17 379.616 1068.83 372.263 1066.7 367.994C1067.99 363.678 1072.34 354.668 1074.33 349.726C1071.79 338.622 1068.99 331.309 1077.44 322.243C1076.93 317.874 1076.65 313.167 1076.3 308.759C1086.58 307.341 1096.16 306.854 1106.45 304.513C1147.97 295.063 1186.92 277.121 1227.55 264.687C1238.42 261.361 1249.58 258.519 1260.56 255.523Z" fill="#00AA7D"/>
<path d="M821.711 526.105C834.156 523.216 851.789 520.809 864.414 518.149C870.148 516.941 903.789 510.423 907.992 511.057C920.672 512.97 942.602 519.162 955.656 522.598C958.305 526.023 970.922 563.027 973.453 569.939C940.359 575.516 906.344 583.583 873.219 589.516C860.789 591.741 844.93 595.702 832.82 597.248L832.484 597.357C829.359 596.722 811.281 570.928 807.977 566.462C810.914 555.799 817.797 536.72 821.711 526.105Z" fill="#FE9A20"/>
<path d="M821.711 526.105C834.156 523.216 851.789 520.809 864.414 518.149C870.148 516.941 903.789 510.423 907.992 511.057C920.672 512.97 942.602 519.162 955.656 522.598C922.328 530.748 883.992 535.699 851.891 543.847C849.492 550.07 831.852 593.932 832.82 597.248L832.484 597.357C829.359 596.722 811.281 570.928 807.977 566.462C810.914 555.799 817.797 536.72 821.711 526.105Z" fill="#FE5E00"/>
<path d="M880.297 359.591C886.305 361.046 901.375 363.41 904.453 367.119L939.758 465.966C918.781 471.503 890.664 475.399 868.812 480.018C863.398 478.028 849.141 469.944 843.43 466.851C854.125 432.553 868.477 393.938 880.297 359.591Z" fill="#FE9A20"/>
<path d="M880.297 359.591C886.305 361.046 901.375 363.41 904.453 367.119C901.805 370.782 869.711 472.988 868.812 480.018C863.398 478.028 849.141 469.944 843.43 466.851C854.125 432.553 868.477 393.938 880.297 359.591Z" fill="#FE5E00"/>
<path d="M1415.8 176.885C1417.58 177.053 1419.48 177.232 1421.01 178.157C1426.41 181.406 1434.73 199.277 1436.17 205.038C1430.1 195.761 1423.68 191.492 1416.48 183.496C1414.92 181.767 1415.46 179.12 1415.8 176.885Z" fill="#00AA7D"/>
<path d="M694.461 630.346C702.889 635.082 711.876 639.295 718.622 646.084C710.387 643.833 699.443 637.364 692.189 632.438L694.461 630.346Z" fill="#00AA7D"/>
</svg>
