<svg width="606" height="135" viewBox="0 0 606 135" fill="none" xmlns="http://www.w3.org/2000/svg">
<path fill-rule="evenodd" clip-rule="evenodd" d="M117.373 26.0712L107.111 26.2547L99.2065 54.7849C94.8593 70.4766 91.1981 83.3173 91.0704 83.3195C90.9423 83.3221 90.7544 82.9525 90.6527 82.4982C90.4821 81.7356 89.7176 78.9276 87.6301 71.3963C87.1823 69.7815 86.1151 65.9004 85.2578 62.7717C84.4008 59.643 83.3013 55.6793 82.8146 53.9636C81.6751 49.9474 80.7638 46.6837 79.3809 41.6689C76.7014 31.9536 76.0907 30.0033 75.5347 29.3889C75.2099 29.03 73.8443 28.1782 72.4996 27.4956C70.139 26.2977 69.9078 26.2547 65.7959 26.2547C61.6839 26.2547 61.4527 26.2977 59.0922 27.4956C57.7475 28.1782 56.3932 29.0175 56.0823 29.361C55.7715 29.7046 54.7101 32.8619 53.7232 36.3778C50.6973 47.1622 48.9735 53.343 47.1006 60.1237C46.113 63.6995 44.3606 70.0109 43.2064 74.1488C42.0518 78.2868 41.0278 82.0438 40.9306 82.4982C40.8337 82.9525 40.6494 83.3232 40.5213 83.3225C40.3936 83.3217 39.813 81.5462 39.231 79.3772C38.6493 77.2082 37.7982 74.1121 37.3401 72.4973C36.2725 68.7351 34.9355 63.9281 33.6653 59.2851C33.113 57.2666 32.2909 54.2939 31.838 52.6791C31.3851 51.0642 30.5594 48.0915 30.003 46.073C29.4466 44.0544 28.597 40.9991 28.1155 39.2834C27.634 37.5676 26.8247 34.6775 26.3175 32.8608C25.8103 31.0441 25.1875 28.8146 24.9336 27.9062L24.4719 26.2547L13.2162 26.1578L1.96089 26.0606L1.3891 26.9333C-0.478954 29.7842 -0.458771 37.3529 1.4247 40.2926C1.89997 41.0344 2.24826 41.1184 4.84592 41.1184H7.73754L8.46935 43.5957C8.87159 44.958 9.72304 47.9722 10.3613 50.2935C10.9995 52.6148 11.9159 55.9179 12.3981 57.6336C12.88 59.3494 14.1242 63.8085 15.1624 67.5427C16.2007 71.277 17.8614 77.2225 18.8534 80.7549C19.845 84.2873 21.0925 88.7464 21.6254 90.664C22.1583 92.5816 22.9675 95.4718 23.4237 97.0866C25.8558 105.698 26.2346 107.034 26.3649 107.459C26.4764 107.823 29.2363 107.902 39.2398 107.826L51.9723 107.73L52.2483 106.812C52.3998 106.308 53.0424 103.995 53.6763 101.674C54.7589 97.7065 55.3179 95.692 57.5184 87.8198C58.0121 86.0537 59.2658 81.5532 60.304 77.8189C61.3423 74.0846 62.5747 69.7081 63.0426 68.0933C63.5109 66.4784 64.2805 63.7131 64.7532 61.9478C65.2255 60.1825 65.6993 58.7376 65.8058 58.7365C65.9122 58.7354 66.4752 60.5098 67.0569 62.6799C67.6386 64.85 68.4783 67.8639 68.9231 69.3778C69.3676 70.8917 70.1874 73.7818 70.7442 75.8004C72.279 81.3627 73.5037 85.7605 74.4234 89.0125C75.76 93.7381 78.8943 105.048 79.2547 106.445L79.5861 107.73H92.3942H105.202L106.19 104.243C106.734 102.326 107.703 98.8574 108.345 96.5361C108.987 94.2148 109.904 90.9118 110.384 89.196C110.864 87.4803 112.11 83.0212 113.153 79.2869C114.195 75.5526 115.423 71.1761 115.881 69.5613C116.34 67.9465 117.172 64.9737 117.732 62.9552C118.291 60.9367 119.119 57.9639 119.572 56.3491C120.025 54.7343 120.847 51.7615 121.4 49.743C121.952 47.7245 122.701 45.0821 123.063 43.8709C123.426 42.6598 124.241 39.7697 124.875 37.4484C125.509 35.1271 126.443 31.7829 126.95 30.0169C127.458 28.2512 127.82 26.5997 127.755 26.3468C127.662 25.9875 125.406 25.9277 117.373 26.0712ZM133.788 26.53C132.739 27.8655 132.041 30.7924 132.059 33.7783C132.075 36.3477 132.249 37.27 133.048 39.0081L134.018 41.1184H136.975H139.931V74.5221V107.926L149.381 107.828L158.832 107.73L158.927 91.1228L159.022 74.5158H163.71H168.397L170.954 79.1757C172.361 81.7389 174.219 85.1656 175.082 86.791C179.659 95.4028 182.502 100.176 184.097 101.923C187.167 105.286 191.111 107.486 195.899 108.505C198.944 109.154 206.029 109.168 210.029 108.534L212.781 108.097L212.88 99.7309C212.974 91.7357 212.949 91.3808 212.31 91.7225C211.942 91.9192 210.271 92.3581 208.597 92.6972C203.725 93.6845 200.517 92.8132 197.479 89.6779C196.293 88.4536 194.732 85.7381 187.92 73.0478C187.108 71.5339 186.031 69.547 185.527 68.6328L184.61 66.9699L187.16 63.3112C190.723 58.1973 192.557 55.5556 198.232 47.3575C200.957 43.4214 204.054 38.9623 205.113 37.4484C206.173 35.9345 208.381 32.7529 210.02 30.378L213 26.0598L202.479 26.1575L191.958 26.2547L188.535 31.2093C186.653 33.9343 184.04 37.7328 182.729 39.6504C181.419 41.568 177.884 46.6877 174.873 51.0275L169.401 58.9181L164.208 59.0198L159.015 59.1218V43.1769C159.015 34.4074 158.915 26.9711 158.792 26.6518C158.595 26.1384 157.155 26.0712 146.359 26.0712C137.027 26.0712 134.064 26.1795 133.788 26.53Z" fill="white"/>
<circle cx="233.5" cy="67.5" r="14.5" fill="#E74F3E"/>
<path d="M265.682 108V27.173H290.585C295.69 27.173 300.083 28.1728 303.767 30.1725C307.451 32.1721 310.279 34.9479 312.252 38.4998C314.226 42.0255 315.212 46.13 315.212 50.8133C315.212 55.444 314.226 59.5222 312.252 63.0479C310.279 66.5472 307.451 69.2836 303.767 71.2569C300.11 73.2302 295.729 74.2168 290.625 74.2168H268.326V69.5993H290.506C294.663 69.5993 298.215 68.8231 301.162 67.2708C304.109 65.7184 306.372 63.5478 307.95 60.7588C309.529 57.9436 310.318 54.6284 310.318 50.8133C310.318 46.9719 309.529 43.6305 307.95 40.7889C306.372 37.921 304.096 35.6977 301.123 34.1191C298.176 32.5404 294.624 31.7511 290.467 31.7511H270.615V108H265.682ZM298.873 71.3753L318.764 108H313.081L293.308 71.3753H298.873ZM330.696 108H325.487L354.652 27.173H360.336L389.501 108H384.292L357.691 33.5271H357.297L330.696 108ZM338.077 77.5715H376.911V82.1496H338.077V77.5715ZM425.883 108H403.466V27.173H427.619C435.197 27.173 441.683 28.778 447.076 31.9879C452.47 35.1978 456.601 39.8022 459.469 45.8011C462.363 51.7737 463.797 58.9434 463.77 67.3102C463.744 75.8613 462.244 83.1757 459.271 89.2535C456.298 95.305 451.996 99.9489 446.366 103.185C440.735 106.395 433.908 108 425.883 108ZM408.399 103.422H425.686C432.895 103.422 438.972 101.988 443.919 99.1201C448.865 96.2259 452.602 92.0819 455.127 86.6882C457.68 81.2945 458.942 74.8352 458.916 67.3102C458.916 59.8906 457.693 53.5365 455.246 48.248C452.799 42.9332 449.234 38.855 444.55 36.0135C439.893 33.1719 434.184 31.7511 427.422 31.7511H408.399V103.422ZM474.992 108H469.783L498.948 27.173H504.632L533.797 108H528.588L501.987 33.5271H501.593L474.992 108ZM482.373 77.5715H521.207V82.1496H482.373V77.5715ZM547.762 108V27.173H572.665C577.769 27.173 582.163 28.1728 585.847 30.1725C589.53 32.1721 592.359 34.9479 594.332 38.4998C596.305 42.0255 597.292 46.13 597.292 50.8133C597.292 55.444 596.305 59.5222 594.332 63.0479C592.359 66.5472 589.53 69.2836 585.847 71.2569C582.19 73.2302 577.809 74.2168 572.705 74.2168H550.406V69.5993H572.586C576.743 69.5993 580.295 68.8231 583.242 67.2708C586.189 65.7184 588.452 63.5478 590.03 60.7588C591.609 57.9436 592.398 54.6284 592.398 50.8133C592.398 46.9719 591.609 43.6305 590.03 40.7889C588.452 37.921 586.176 35.6977 583.203 34.1191C580.256 32.5404 576.704 31.7511 572.547 31.7511H552.695V108H547.762ZM580.953 71.3753L600.844 108H595.161L575.388 71.3753H580.953Z" fill="#E74F3E"/>
</svg>
